<svg xmlns="http://www.w3.org/2000/svg" viewBox="0 0 1141.143 440.581">
  <defs>
    <clipPath id="a" clipPathUnits="userSpaceOnUse">
      <path d="M0 1000h1000V0H0z"/>
    </clipPath>
  </defs>
  <g clip-path="url(#a)" transform="matrix(1.33333 0 0 -1.33333 -96.093 900.289)">
    <path fill="#676c72" d="M104.2 382.96c6.322 0 11.338 1.816 15.047 5.451 3.708 3.633 5.563 8.711 5.563 15.233 0 6.521-1.855 11.598-5.563 15.233-3.71 3.634-8.725 5.451-15.046 5.451h-9.857V382.96zm-16.13 47.417h16.13c5.477 0 10.255-1.133 14.338-3.397 4.08-2.267 7.218-5.415 9.409-9.447 2.19-4.032 3.285-8.662 3.285-13.889 0-5.227-1.095-9.857-3.285-13.889-2.191-4.032-5.328-7.182-9.41-9.446-4.082-2.266-8.86-3.398-14.336-3.398H88.07zm78.033-30.392c-.101 1.592-.548 3.185-1.344 4.778-.797 1.593-2.053 2.937-3.771 4.033-1.717 1.094-3.871 1.643-6.459 1.643-2.988 0-5.514-.959-7.579-2.875-2.067-1.917-3.424-4.443-4.07-7.579zm-20.759-21.655c-2.887 1.741-5.14 4.144-6.758 7.206-1.618 3.061-2.426 6.508-2.426 10.342 0 3.683.757 7.068 2.277 10.155 1.518 3.086 3.671 5.551 6.459 7.392 2.787 1.842 6.022 2.763 9.708 2.763 3.733 0 6.969-.834 9.707-2.5 2.737-1.67 4.841-3.972 6.31-6.908 1.467-2.939 2.203-6.299 2.203-10.08 0-.747-.075-1.396-.225-1.943h-30.093c.15-2.887.846-5.327 2.091-7.318 1.244-1.99 2.825-3.484 4.742-4.479 1.915-.997 3.92-1.495 6.011-1.495 4.878 0 8.637 2.29 11.275 6.871l5.377-2.614c-1.642-3.088-3.871-5.526-6.683-7.318-2.813-1.792-6.211-2.689-10.193-2.689-3.634 0-6.895.873-9.782 2.615m29.944 36.664h6.795l11.798-30.615h.149l11.948 30.615h6.646l-15.532-38.083h-6.421zm69.37-15.009c-.101 1.592-.548 3.185-1.344 4.778-.797 1.593-2.053 2.937-3.771 4.033-1.718 1.094-3.871 1.643-6.46 1.643-2.987 0-5.513-.959-7.578-2.875-2.067-1.917-3.424-4.443-4.071-7.579zm-20.76-21.655c-2.886 1.741-5.14 4.144-6.757 7.206-1.618 3.061-2.426 6.508-2.426 10.342 0 3.683.757 7.068 2.277 10.155 1.518 3.086 3.67 5.551 6.459 7.392 2.787 1.842 6.022 2.763 9.707 2.763 3.734 0 6.97-.834 9.708-2.5 2.737-1.67 4.84-3.972 6.31-6.908 1.467-2.939 2.203-6.299 2.203-10.08 0-.747-.075-1.396-.225-1.943H221.06c.15-2.887.846-5.327 2.09-7.318 1.245-1.99 2.826-3.484 4.743-4.479 1.915-.997 3.92-1.495 6.01-1.495 4.879 0 8.638 2.29 11.276 6.871l5.377-2.614c-1.642-3.088-3.872-5.526-6.683-7.318-2.813-1.792-6.211-2.689-10.193-2.689-3.634 0-6.895.873-9.782 2.615m34.872 52.047h6.347v-53.466h-6.347zm39.465-47.157c2.017 1.17 3.634 2.85 4.854 5.042 1.219 2.189 1.83 4.753 1.83 7.69 0 2.938-.611 5.5-1.83 7.692-1.22 2.19-2.837 3.87-4.854 5.04a12.805 12.805 0 01-6.533 1.756 13 13 0 01-6.571-1.755c-2.042-1.171-3.672-2.851-4.892-5.041-1.22-2.191-1.83-4.754-1.83-7.691 0-2.938.61-5.502 1.83-7.691 1.22-2.191 2.85-3.872 4.892-5.041a12.99 12.99 0 016.57-1.755c2.34 0 4.518.585 6.534 1.755m-16.614-4.816c-2.988 1.792-5.315 4.23-6.982 7.318-1.67 3.086-2.502 6.496-2.502 10.23s.833 7.143 2.502 10.23c1.667 3.086 3.994 5.526 6.982 7.318 2.987 1.792 6.347 2.688 10.08 2.688 3.734 0 7.095-.896 10.082-2.688 2.986-1.792 5.312-4.232 6.98-7.318 1.668-3.087 2.503-6.496 2.503-10.23s-.835-7.144-2.502-10.23c-1.67-3.088-3.995-5.526-6.981-7.318-2.987-1.792-6.348-2.69-10.081-2.69-3.734 0-7.094.898-10.081 2.69m61.157 4.853c1.94 1.195 3.497 2.9 4.667 5.115 1.169 2.215 1.755 4.742 1.755 7.58 0 2.837-.586 5.364-1.755 7.579-1.17 2.214-2.726 3.92-4.667 5.115-1.941 1.195-4.008 1.793-6.198 1.793-2.191 0-4.256-.598-6.198-1.793-1.941-1.195-3.485-2.888-4.63-5.077-1.145-2.192-1.717-4.731-1.717-7.617 0-2.888.572-5.426 1.718-7.617 1.144-2.191 2.688-3.883 4.629-5.078 1.942-1.194 4.007-1.792 6.198-1.792 2.19 0 4.257.598 6.198 1.792m-24.791 31.736h6.048v-5.674h.299c1.144 1.94 2.875 3.57 5.189 4.89 2.316 1.319 4.916 1.979 7.804 1.979 3.385 0 6.47-.871 9.26-2.614 2.787-1.743 4.976-4.157 6.57-7.243 1.593-3.087 2.39-6.547 2.39-10.38 0-3.882-.797-7.354-2.39-10.416-1.594-3.061-3.783-5.465-6.57-7.206-2.79-1.742-5.875-2.614-9.26-2.614-2.888 0-5.488.66-7.804 1.98-2.314 1.318-4.045 2.923-5.19 4.816h-.298l.299-5.228v-16.502h-6.347zm72.88-15.009c-.101 1.592-.55 3.185-1.345 4.778-.797 1.593-2.053 2.937-3.77 4.033-1.718 1.094-3.871 1.643-6.46 1.643-2.987 0-5.514-.959-7.58-2.875-2.065-1.917-3.422-4.443-4.07-7.579zm-20.76-21.655c-2.887 1.741-5.14 4.144-6.758 7.206-1.618 3.061-2.426 6.508-2.426 10.342 0 3.683.758 7.068 2.277 10.155 1.519 3.086 3.67 5.551 6.46 7.392 2.787 1.842 6.022 2.763 9.707 2.763 3.733 0 6.969-.834 9.707-2.5 2.737-1.67 4.842-3.972 6.31-6.908 1.468-2.939 2.204-6.299 2.204-10.08 0-.747-.075-1.396-.225-1.943H367.27c.15-2.887.846-5.327 2.09-7.318 1.244-1.99 2.825-3.484 4.742-4.479 1.916-.997 3.92-1.495 6.012-1.495 4.878 0 8.636 2.29 11.275 6.871l5.376-2.614c-1.642-3.088-3.871-5.526-6.682-7.318-2.814-1.792-6.211-2.689-10.194-2.689-3.633 0-6.895.873-9.782 2.615m34.872 36.664h6.048v-6.123h.299c.747 2.091 2.19 3.833 4.331 5.227 2.139 1.393 4.38 2.09 6.72 2.09 1.743 0 3.236-.273 4.481-.82v-6.796c-1.594.796-3.386 1.195-5.377 1.195-1.842 0-3.535-.524-5.077-1.572-1.544-1.048-2.777-2.457-3.696-4.228-.922-1.77-1.382-3.68-1.382-5.725v-21.33h-6.347zm47.79-35.47c-3.485 2.54-5.875 6.098-7.169 10.68l6.049 2.463c.846-3.187 2.414-5.8 4.704-7.84 2.289-2.043 4.978-3.063 8.064-3.063 3.086 0 5.701.833 7.841 2.502 2.14 1.667 3.211 3.945 3.211 6.832 0 2.49-.909 4.543-2.725 6.161-1.818 1.618-4.792 3.123-8.924 4.518l-3.36 1.194c-3.784 1.345-6.87 3.111-9.259 5.302-2.39 2.19-3.584 5.228-3.584 9.11 0 2.54.696 4.891 2.09 7.057 1.393 2.165 3.334 3.895 5.825 5.19 2.488 1.293 5.276 1.941 8.363 1.941 3.086 0 5.774-.573 8.064-1.718 2.289-1.145 4.12-2.538 5.489-4.182 1.369-1.642 2.327-3.26 2.875-4.853l-5.974-2.539c-.498 1.842-1.631 3.51-3.397 5.004-1.768 1.493-4.096 2.24-6.983 2.24-2.738 0-5.077-.772-7.018-2.315-1.942-1.544-2.912-3.486-2.912-5.825 0-2.09.821-3.796 2.463-5.115 1.643-1.319 4.132-2.552 7.467-3.696l3.51-1.194c4.529-1.644 8.064-3.697 10.603-6.162 2.54-2.463 3.809-5.812 3.809-10.043 0-3.435-.885-6.323-2.651-8.662-1.768-2.34-3.994-4.058-6.683-5.152-2.688-1.095-5.451-1.644-8.289-1.644-4.182 0-8.016 1.27-11.499 3.81m45.662-3.049c-1.32.507-2.427 1.19-3.323 2.054a9.368 9.368 0 00-2.24 3.344c-.499 1.268-.748 2.814-.748 4.639v22.732h-6.645v5.75h6.645v10.752h6.348v-10.752h9.26v-5.75h-9.26v-21.218c0-2.137.398-3.715 1.194-4.732.946-1.121 2.316-1.68 4.108-1.68 1.443 0 2.838.423 4.182 1.27v-6.197a9.75 9.75 0 00-2.278-.747c-.772-.15-1.755-.225-2.95-.225-1.543 0-2.975.255-4.293.76m20.311 3.273c-2.415 2.688-3.622 6.446-3.622 11.275v23.97h6.348v-22.999c0-3.635.82-6.298 2.463-7.99 1.643-1.693 3.858-2.539 6.647-2.539 2.14 0 4.044.572 5.712 1.718 1.667 1.144 2.96 2.637 3.883 4.48a12.847 12.847 0 011.38 5.824v21.506h6.348v-38.083h-6.048v5.526h-.3c-1.044-1.893-2.712-3.485-5.001-4.779-2.291-1.294-4.731-1.942-7.32-1.942-4.58 0-8.076 1.345-10.49 4.033m61.305 3.509c1.916 1.195 3.46 2.887 4.63 5.078 1.17 2.19 1.755 4.729 1.755 7.617 0 2.886-.586 5.425-1.755 7.617-1.17 2.189-2.714 3.882-4.63 5.077-1.917 1.195-3.994 1.793-6.234 1.793-2.192 0-4.257-.598-6.199-1.793-1.94-1.195-3.498-2.901-4.667-5.115-1.17-2.215-1.754-4.742-1.754-7.58 0-2.837.584-5.364 1.754-7.58 1.17-2.214 2.726-3.92 4.667-5.114 1.942-1.194 4.007-1.792 6.2-1.792 2.24 0 4.316.598 6.233 1.792m-16.204-4.928c-2.763 1.74-4.94 4.145-6.533 7.206-1.594 3.062-2.39 6.534-2.39 10.417 0 3.832.796 7.292 2.39 10.379 1.592 3.086 3.77 5.5 6.533 7.243 2.764 1.743 5.837 2.614 9.223 2.614 2.936 0 5.55-.66 7.84-1.98 2.29-1.318 4.033-2.948 5.227-4.89h.3l-.3 5.302v15.756h6.348V376.91h-6.049v5.6h-.299c-1.194-1.892-2.938-3.497-5.227-4.815-2.29-1.32-4.904-1.98-7.84-1.98-3.386 0-6.459.872-9.223 2.614m65.601 21.656c-.101 1.592-.55 3.185-1.344 4.778-.797 1.593-2.053 2.937-3.771 4.033-1.718 1.094-3.871 1.643-6.46 1.643-2.987 0-5.514-.959-7.578-2.875-2.067-1.917-3.424-4.443-4.071-7.579zm-20.76-21.655c-2.886 1.741-5.14 4.144-6.757 7.206-1.618 3.061-2.426 6.508-2.426 10.342 0 3.683.757 7.068 2.277 10.155 1.518 3.086 3.67 5.551 6.459 7.392 2.787 1.842 6.022 2.763 9.707 2.763 3.734 0 6.97-.834 9.708-2.5 2.737-1.67 4.84-3.972 6.31-6.908 1.467-2.939 2.203-6.299 2.203-10.08 0-.747-.075-1.396-.225-1.943h-30.093c.15-2.887.846-5.327 2.09-7.318 1.245-1.99 2.826-3.484 4.743-4.479 1.915-.997 3.92-1.495 6.01-1.495 4.879 0 8.638 2.29 11.276 6.871l5.377-2.614c-1.643-3.088-3.872-5.526-6.683-7.318-2.813-1.792-6.211-2.689-10.193-2.689-3.634 0-6.895.873-9.782 2.615m34.871 36.664h6.048v-5.6h.3c1.045 1.891 2.712 3.496 5.003 4.816 2.29 1.318 4.728 1.978 7.317 1.978 4.58 0 8.076-1.332 10.492-3.995 2.413-2.663 3.621-6.285 3.621-10.864v-24.418h-6.346v23.447c0 3.534-.848 6.098-2.539 7.692-1.694 1.592-4.008 2.39-6.946 2.39-2.04 0-3.87-.574-5.488-1.718-1.618-1.146-2.875-2.652-3.77-4.518a13.386 13.386 0 01-1.344-5.862v-21.43h-6.348zm50.366-38.518c-1.319.507-2.427 1.19-3.322 2.054a9.342 9.342 0 00-2.24 3.344c-.5 1.268-.748 2.814-.748 4.639v22.732h-6.645v5.75h6.645v10.752h6.347v-10.752h9.26v-5.75h-9.26v-21.218c0-2.137.4-3.715 1.195-4.732.946-1.121 2.315-1.68 4.107-1.68 1.443 0 2.838.423 4.182 1.27v-6.197a9.72 9.72 0 00-2.278-.747c-.772-.15-1.755-.225-2.949-.225-1.544 0-2.976.255-4.294.76m45.066 2.899c-4.232 2.438-7.555 5.787-9.97 10.044-2.414 4.256-3.621 8.998-3.621 14.225s1.207 9.968 3.622 14.225c2.414 4.256 5.737 7.604 9.969 10.043 4.23 2.44 8.935 3.659 14.113 3.659 3.982 0 7.628-.759 10.94-2.277 3.309-1.52 6.184-3.672 8.625-6.459l-4.556-4.406c-2.042 2.438-4.27 4.231-6.684 5.377-2.415 1.144-5.19 1.717-8.325 1.717-3.883 0-7.443-.909-10.678-2.725-3.237-1.819-5.813-4.382-7.73-7.692-1.916-3.311-2.874-7.131-2.874-11.462 0-4.332.958-8.152 2.875-11.462 1.916-3.312 4.492-5.875 7.729-7.692 3.235-1.817 6.795-2.725 10.678-2.725 6.47 0 11.972 2.663 16.502 7.99l4.63-4.481c-2.49-2.937-5.552-5.264-9.184-6.981-3.635-1.718-7.617-2.577-11.948-2.577-5.178 0-9.883 1.22-14.113 3.659m42.34 51.002h6.347v-53.466h-6.347zm19.078-50.628c-2.415 2.688-3.621 6.446-3.621 11.275v23.97h6.347v-22.999c0-3.635.82-6.298 2.464-7.99 1.643-1.693 3.858-2.539 6.646-2.539 2.14 0 4.044.572 5.713 1.718 1.667 1.144 2.96 2.637 3.883 4.48a12.859 12.859 0 011.38 5.824v21.506h6.348v-38.083h-6.05v5.526h-.298c-1.044-1.893-2.713-3.485-5.002-4.779-2.29-1.294-4.73-1.942-7.318-1.942-4.581 0-8.078 1.345-10.492 4.033m63.359 3.509c1.941 1.195 3.497 2.9 4.667 5.115 1.17 2.215 1.755 4.742 1.755 7.58 0 2.837-.586 5.364-1.755 7.579-1.17 2.214-2.726 3.92-4.667 5.115-1.94 1.195-4.008 1.793-6.198 1.793-2.19 0-4.256-.598-6.198-1.793-1.94-1.195-3.485-2.888-4.629-5.077-1.146-2.192-1.718-4.731-1.718-7.617 0-2.888.572-5.426 1.718-7.617 1.144-2.191 2.688-3.883 4.63-5.078 1.941-1.194 4.006-1.792 6.197-1.792 2.19 0 4.257.598 6.198 1.792m-13.255-5.562c-2.314 1.318-4.045 2.923-5.189 4.816h-.299v-5.601h-6.049v53.466h6.348V414.62l-.299-5.301h.3c1.143 1.94 2.874 3.57 5.188 4.89 2.316 1.319 4.916 1.979 7.804 1.979 3.385 0 6.471-.871 9.26-2.614 2.787-1.743 4.976-4.157 6.57-7.243 1.593-3.087 2.39-6.547 2.39-10.38 0-3.882-.797-7.354-2.39-10.416-1.594-3.061-3.783-5.465-6.57-7.206-2.789-1.742-5.875-2.614-9.26-2.614-2.888 0-5.488.66-7.804 1.98m36.105.895c-2.738 1.917-4.68 4.37-5.824 7.356l5.675 2.54c.945-2.291 2.352-4.058 4.218-5.302a10.875 10.875 0 016.16-1.867c2.39 0 4.43.485 6.125 1.456 1.69.97 2.539 2.352 2.539 4.144 0 1.593-.672 2.875-2.017 3.846-1.344.97-3.46 1.804-6.347 2.502l-4.63 1.194c-3.037.747-5.525 2.017-7.466 3.809-1.943 1.792-2.913 4.106-2.913 6.944 0 2.19.659 4.119 1.979 5.787 1.318 1.667 3.073 2.949 5.264 3.846 2.19.896 4.555 1.344 7.094 1.344 3.334 0 6.31-.722 8.923-2.165 2.614-1.445 4.468-3.461 5.564-6.05l-5.527-2.538c-1.692 3.385-4.704 5.078-9.035 5.078-2.091 0-3.92-.486-5.488-1.456-1.568-.971-2.353-2.203-2.353-3.696 0-1.395.548-2.528 1.643-3.398 1.095-.872 2.737-1.581 4.929-2.128l5.526-1.42c3.733-.945 6.545-2.351 8.438-4.22 1.89-1.865 2.837-4.142 2.837-6.831 0-2.34-.671-4.393-2.016-6.16-1.344-1.768-3.162-3.125-5.451-4.07-2.29-.944-4.83-1.42-7.617-1.42-4.083 0-7.493.96-10.23 2.876"/>
    <path fill="#ea4335" d="M423.863 588.62l47.204 27.253c11.109 6.414 14.915 20.62 8.5 31.728-6.413 11.108-20.616 14.916-31.726 8.501l-81.567-47.092z"/>
    <path fill="#4285f4" d="M459.431 518.574c8.028 0 15.834 4.166 20.137 11.617 6.414 11.109 2.607 25.314-8.5 31.727L389.5 609.01c-11.109 6.418-25.313 2.607-31.727-8.501-6.414-11.11-2.608-25.315 8.501-31.728l81.566-47.091a23.108 23.108 0 0111.591-3.116"/>
    <path fill="#fbbc04" d="M540.569 518.574c3.94 0 7.933 1.003 11.59 3.116l81.566 47.09-56.856 20.814-47.935-27.676c-11.11-6.413-14.916-20.618-8.502-31.727 4.302-7.451 12.11-11.617 20.137-11.617"/>
    <path fill="#0f9d58" d="M622.09 565.665c8.027 0 15.834 4.165 20.136 11.617 6.414 11.109 2.608 25.313-8.5 31.728l-81.567 47.093c-11.109 6.413-25.312 2.608-31.727-8.502-6.414-11.108-2.608-25.313 8.502-31.728l81.565-47.092a23.128 23.128 0 0111.591-3.116"/>
  </g>
</svg>
