<svg xmlns="http://www.w3.org/2000/svg" viewBox="0 0 95.675 136.899">
   <path fill="#fddd04" fill-rule="evenodd" d="M49.092 72.89c.078.005.157.01.236.01 2.913.052 5.348-2.774 3.736-6.188-.177 2.643-1.34 4.071-3.8 4.071-.06 0-.116 0-.172-.002a9.54 9.54 0 01-.171.002c-2.461 0-3.624-1.428-3.8-4.071-1.613 3.414.822 6.24 3.735 6.188.08 0 .158-.005.236-.01zm0-4.202c.061.005.124.007.19.007 2.162.058 2.62-2.133 2.085-3.455-.343 1.322-1.343 1.994-2.275 1.783-.932.21-1.932-.46-2.275-1.783-.535 1.322-.077 3.513 2.085 3.455.066 0 .128-.003.19-.007zm0-6.536c.238-.01.464-.01.675-.001 6.807.299 15.48 2.635 19.057 1.248 2.457-.952 6.424-3.929 8.276-1.313.56.792-1.695 2.764-1.742.432-.912-1.878-2.864.929-1.447 2.42-5.165 5.109-19.21-.716-20.552-1.095-.383-.109-.596.3-.292.842.49.875 1.993 2.152 2.357 3.499.736 2.712-1.448 7.063-5.8 7.183a6.714 6.714 0 01-.532-.006c-.174.01-.351.012-.533.006-4.35-.12-6.535-4.47-5.8-7.183.365-1.347 1.869-2.624 2.358-3.499.304-.542.091-.95-.292-.842-1.342.379-15.387 6.204-20.552 1.094 1.417-1.49-.535-4.297-1.447-2.419-.047 2.332-2.302.36-1.742-.432 1.852-2.616 5.819.36 8.276 1.313 3.577 1.387 12.25-.95 19.057-1.248a8 8 0 01.675 0zm0-8.068c-.382-.055-.817.108-.847.48-.44 3.703-.047 3.158-1.327 4.712-1.816 2.203-3.594 2.01-6.45 2.169-2.7.15-4.845.332-5.304-.831-.243-.615 1.267-5.213 5.445-6.059 1.485-.3 4.228.44 4.227-.443-.002-1.5-4.118-1.053-5.413-.72-4.529 1.167-8.351 3.015-11.876 8.122 6.666 3.466 13.828.066 21.366-.326l.179.018.179-.018c7.538.392 14.7 3.792 21.365.326-3.524-5.107-7.347-6.955-11.876-8.121-1.294-.334-5.409-.781-5.412.72 0 .882 2.742.142 4.227.442 4.177.846 5.688 5.444 5.445 6.059-.459 1.163-2.604.981-5.304.83-2.856-.158-4.634.035-6.45-2.168-1.28-1.554-.887-1.009-1.327-4.713-.03-.37-.465-.534-.847-.48zm0-22.137c-.197-.113-.373-.51-.386-1.151-.064-3.034-.855-6.26-.55-9.794.125-1.246.515-1.94.936-2.104.42.164.811.858.936 2.104.305 3.534-.486 6.76-.55 9.794-.013.641-.189 1.038-.386 1.15zm0-31.447c-4.537 3.41-11.728 4.154-11.603 12.943-.07 3.484 1.547 5.434 7.618 5.376 1.816-.018 1.82 6.208 1.766 8.94-1.137-1.94-2.207-3.26-4.254-4.809-4.675-4.084-6.891-4.95-6.891-9.942 0-3.797.937-5.004 2.927-7.55-6.995 1.139-17.06 7.137-9.66 14.38 3.279 3.186 8.535.613 12.129 3.623 2.052 1.49 5.94 5.982 5.94 9.068l.102 1.818-.316 8.153c-.033.477-.639.381-.648-.049 0-8.806-4.695-15.048-12.903-15.048-3.032 0-4.775.63-7.97.504-3.017.038-6.572-2.369-6.69-4.913-3.357 3.225-2.858 11.076 3.315 10.429 3.97-.838 4.41-4.67 10.12-4.67 3.59-.022 6.505.064 9.335 3.018 1.239 1.294 2.302 2.516 2.994 6.985.065 1.025-.357.98-.604.422-2.119-4.802-4.321-5.971-8.226-6.136-6.28-.038-11.687 9.182-16.248 9.182-2.082 0-3.289-.823-4.495-2.459.108 3.822.634 7.379 4.755 7.414 2.528.038 4.582-3.07 5.947-5.307 2.37-3.882 6.9-8.417 11.857-7.389 4.35 1.142 6.872 5.716 6.872 12.467 0 1.349-.547 3.724-2.172 3.724-1.554 0-2.113-.374-2.113-1.892 0-2.795.97-9.406-2.209-9.406-1.733-.068-2.49.95-2.551 2.274.006 1.464 2.907 2.702 2.381.417-.162-.704.984-.989 1.05.076-.058 2.293-2.071 2.026-1.863 6.967 0 3.799 3.016 3.014 6.959 3.037 3.237.387 2.09 3.855-.182 3.866-1.122.046-1.486-.631-2.231-.736-.623-.086-1.237.09-1.376.538-.348 1.874 2.335 2.396 4.463 2.396 1.516.079-.586 1.29-1.628 1.322-.72.022-.69.754-.036.77 3.704-.104 3.955-2.644 4.682-6.062.066-.885.629-1.27 1.657-1.321 1.028.052 1.591.436 1.657 1.321.726 3.418.978 5.958 4.683 6.062.652-.016.683-.748-.037-.77-1.042-.032-3.144-1.243-1.628-1.322 2.128 0 4.811-.522 4.463-2.396-.14-.449-.753-.624-1.376-.538-.745.105-1.109.782-2.231.736-2.271-.01-3.419-3.479-.182-3.866 3.943-.023 6.959.762 6.959-3.037.208-4.941-1.805-4.674-1.863-6.967.066-1.065 1.212-.78 1.05-.076-.526 2.285 2.375 1.047 2.381-.417-.06-1.324-.818-2.341-2.551-2.274-3.18 0-2.21 6.61-2.21 9.406 0 1.518-.558 1.892-2.112 1.892-1.625 0-2.172-2.375-2.172-3.724 0-6.751 2.521-11.325 6.872-12.467 4.958-1.028 9.488 3.507 11.857 7.39 1.365 2.236 3.42 5.344 5.947 5.306 4.12-.036 4.647-3.592 4.755-7.414-1.206 1.636-2.413 2.459-4.495 2.459-4.561 0-9.969-9.22-16.248-9.182-3.905.165-6.107 1.334-8.227 6.136-.246.559-.668.603-.604-.422.693-4.47 1.756-5.691 2.995-6.985 2.83-2.954 5.745-3.04 9.335-3.018 5.71 0 6.15 3.832 10.12 4.67 6.173.647 6.672-7.204 3.315-10.429-.118 2.544-3.673 4.95-6.69 4.913-3.195.126-4.938-.504-7.97-.504-8.208 0-12.903 6.242-12.903 15.048-.01.43-.616.526-.648.049l-.316-8.153.102-1.818c0-3.086 3.888-7.578 5.94-9.068 3.594-3.01 8.85-.437 12.13-3.623 7.4-7.243-2.667-13.241-9.66-14.38 1.988 2.546 2.926 3.753 2.926 7.55 0 4.992-2.216 5.858-6.89 9.942-2.048 1.549-3.118 2.87-4.255 4.81-.054-2.733-.05-8.959 1.766-8.941 6.07.058 7.689-1.892 7.618-5.376C60.82 4.653 53.63 3.909 49.092.5zm-2.707 5.515c-1.643.456-2.502 3.112-2.37 5.874 0 1.463 1.234 3.403 2.104 4.008-.594-1.6-1.48-5.395.266-9.882zm1.795 37.387c0-.862-.887-.984-.92.313.123 3.943-1.682 3.794-1.792 5.318 0 1.128.22 1.927 1.67 1.774 1.281 0 1.06-2.428 1.06-3.552l-.018-3.853zM32.829 23.1c-1.054 1.717-4.404 3.243-6.553 3.243-7.834 0-7.529-8.482-1.482-12.482-.158 5.778 2.769 9.223 8.035 9.24zm-8.46 11.322c-.952 3.768-2.511 6.12-5.717 6.12-4.276-.419-4.056-6.596-3.14-8.973 2.142 3.865 5.657 4.12 8.857 2.853zM42.07 47.935c.782-.077 1.079.75.787 1.318-.292.568-1.104.502-1.455-.054-.267-.424-.103-1.24.668-1.264zM20.956 52.68c-1.778 0-3.963-2.824-4.211-4.589 1.097.48 2.447 1 3.796.79 1.535-.305 1.618-.456 2.425-1.555 1.434 2.27 1.1 5.354-2.01 5.354zm3.093 3.841c-2.34.717-4.068-2.169-4.505-3.028 1.535.945 4.5.899 5.104-.787.6 1.608.93 3.094-.6 3.815zm.837 2.988c-.996-.172-1.603-.626-1.794-1.37 1.222.194 2.508-.168 2.983-1.194.634 1.11.47 2.85-1.19 2.564zm11.36-3.206c-1.057 1.024-2.074 2.943-2.902 4.168-.535.791-1.372.514-1.152.055.665-1.394 2.57-3.765 4.054-4.223zm-.843-.667c-1.03 1.041-2.278 2.265-2.543 2.58-1.679 1.997-2.508 3.162-2.98 1.998-.096-.235.829-1.62 2.197-2.625 1.076-.789 1.998-1.567 3.326-1.953zm7.214 18.36c-1.577.838-5.586-.123-6.178-2.073 2.33-1.14 3.474-2.034 5.222-3.412-.064 2.598.207 3.438.956 5.485zM29.83 68.567c1.17-.161 3.884.013 5.606-.536 2.8-.893 4.336-1.122 6.95-2.22-1.008 1.89-3.871 3.591-4.807 4.227-2.417 2.076-7.269 1.915-7.75-1.471zM51.798 6.015c1.644.456 2.503 3.112 2.371 5.874 0 1.463-1.234 3.403-2.104 4.008.594-1.6 1.48-5.395-.267-9.882zm-1.794 37.387c0-.862.887-.984.92.313-.123 3.943 1.682 3.794 1.792 5.318 0 1.128-.22 1.927-1.67 1.774-1.281 0-1.06-2.428-1.06-3.552l.018-3.853zM65.355 23.1c1.054 1.717 4.404 3.243 6.553 3.243 7.834 0 7.529-8.482 1.482-12.482.158 5.778-2.769 9.223-8.035 9.24zm8.46 11.322c.952 3.768 2.511 6.12 5.717 6.12 4.276-.419 4.056-6.596 3.14-8.973-2.142 3.865-5.657 4.12-8.857 2.853zM56.114 47.935c-.782-.077-1.079.75-.787 1.318.292.568 1.104.502 1.455-.054.267-.424.103-1.24-.668-1.264zm21.114 4.745c1.778 0 3.963-2.824 4.211-4.589-1.097.48-2.447 1-3.796.79-1.536-.305-1.618-.456-2.425-1.555-1.434 2.27-1.1 5.354 2.01 5.354zm-3.093 3.841c2.34.717 4.068-2.169 4.505-3.028-1.535.945-4.5.899-5.104-.787-.6 1.608-.93 3.094.6 3.815zm-.837 2.988c.996-.172 1.603-.626 1.793-1.37-1.222.194-2.507-.168-2.982-1.194-.634 1.11-.47 2.85 1.19 2.564zm-11.36-3.206c1.057 1.024 2.074 2.943 2.902 4.168.535.791 1.372.514 1.152.055-.666-1.394-2.57-3.765-4.054-4.223zm.843-.667c1.03 1.041 2.278 2.265 2.543 2.58 1.679 1.997 2.508 3.162 2.98 1.998.096-.235-.829-1.62-2.197-2.625-1.076-.789-1.998-1.567-3.326-1.953zm-7.214 18.36c1.577.838 5.586-.123 6.178-2.073-2.33-1.14-3.474-2.034-5.222-3.412.064 2.598-.207 3.438-.956 5.485zm12.786-5.429c-1.17-.161-3.884.013-5.606-.536-2.8-.893-4.336-1.122-6.95-2.22 1.008 1.89 3.871 3.591 4.807 4.227 2.417 2.076 7.269 1.915 7.75-1.471" />
   <path fill="#231f20" d="M14.078 84.658c0 1.501.378 2.267.886 2.743.727.686 1.683.716 2.21.716.647 0 1.364-.113 2.071-.746.836-.746.946-1.968.946-3.117v-1.107c0-1.574 0-1.864.02-2.196.02-.362.1-.538.368-.59.12-.02.18-.03.289-.03.12 0 .18-.021.18-.094 0-.072-.07-.093-.21-.093-.388 0-1.015.031-1.135.031-.01 0-.637-.031-1.145-.031-.14 0-.209.02-.209.093s.06.093.17.093c.109 0 .278.01.358.031.328.073.408.239.428.59.02.332.02.622.02 2.196v1.293c0 1.067-.03 1.999-.578 2.568-.398.414-.936.56-1.374.56-.338 0-.796-.042-1.244-.425-.488-.415-.777-1.046-.777-2.547v-1.45c0-1.573 0-1.863.02-2.195.02-.362.1-.538.368-.59.12-.02.18-.03.29-.03.099 0 .159-.021.159-.094 0-.072-.07-.093-.22-.093-.358 0-.985.031-1.224.031-.299 0-.926-.031-1.454-.031-.15 0-.219.02-.219.093s.06.093.17.093c.139 0 .308.01.388.031.328.073.408.239.428.59.02.332.02.622.02 2.196v1.51zm9.359-2.443h.03c.18.196 1.284 1.49 2.37 2.609 1.035 1.066 2.31 2.422 2.937 3.043.109.116.229.23.338.23.09 0 .13-.093.13-.323l.109-6.533c.01-.58.09-.797.369-.88.119-.03.199-.03.298-.03.12 0 .18-.032.18-.094 0-.083-.1-.093-.23-.093-.487 0-.866.031-.975.031-.21 0-.687-.031-1.205-.031-.15 0-.259.01-.259.093 0 .062.04.093.16.093.139 0 .378 0 .527.062.239.104.329.3.339.932l.099 4.649h-.05c-.169-.166-1.513-1.657-2.19-2.36a129.923 129.923 0 01-3.087-3.324c-.169-.186-.259-.321-.368-.321-.1 0-.13.145-.13.352l-.09 6.129c-.01.901-.049 1.201-.308 1.284-.139.041-.318.052-.448.052-.1 0-.159.02-.159.082 0 .095.09.106.219.106.518 0 .986-.031 1.075-.031.19 0 .588.03 1.235.03.14 0 .229-.02.229-.105 0-.062-.06-.082-.17-.082a1.54 1.54 0 01-.517-.073c-.2-.072-.329-.341-.349-1.149l-.11-4.348zm8.98 2.754c0 1.004 0 1.822-.05 2.257-.029.3-.088.475-.288.517-.09.02-.21.042-.358.042-.12 0-.16.03-.16.082 0 .073.07.106.2.106.398 0 1.025-.031 1.254-.031.27 0 .896.03 1.553.03.11 0 .19-.032.19-.105 0-.051-.05-.082-.16-.082-.15 0-.368-.021-.508-.042-.298-.042-.368-.228-.398-.507-.04-.445-.04-1.263-.04-2.267v-1.822c0-1.574 0-1.864.02-2.196.02-.362.1-.538.369-.59.12-.02.199-.03.298-.03.1 0 .16-.021.16-.104 0-.062-.08-.083-.21-.083-.378 0-.965.031-1.214.031-.29 0-.916-.031-1.294-.031-.16 0-.24.02-.24.083 0 .083.06.103.16.103.12 0 .249.01.358.041.22.053.319.229.339.58.02.332.02.622.02 2.196v1.822zm6.094 2.515c.19.489.249.633.378.633.14 0 .2-.165.458-.767.22-.518.687-1.647 1.325-3.158.537-1.273.806-1.832 1.194-2.806.27-.662.418-.838.548-.931.179-.125.389-.125.488-.125.1 0 .16-.02.16-.093 0-.072-.08-.093-.21-.093-.299 0-.766.031-.936.031-.13 0-.548-.03-1.045-.03-.19 0-.279.02-.279.103 0 .072.08.082.17.082.128 0 .278.01.397.052.09.031.13.114.13.197 0 .093-.04.248-.09.383-.239.684-1.533 4.017-1.961 5.156h-.04l-1.712-4.7c-.14-.373-.23-.663-.23-.798 0-.093.03-.165.1-.217.08-.062.23-.073.388-.073.09 0 .15-.02.15-.093 0-.072-.11-.093-.23-.093-.497 0-.975.031-1.224.031-.348 0-.916-.03-1.445-.03-.15 0-.26.01-.26.092 0 .062.03.093.12.093.08 0 .24 0 .389.042.36.103.53.217.758.787l2.51 6.325zm5.616-2.515c0 .952 0 1.77-.05 2.205-.04.3-.09.527-.29.569-.089.02-.208.042-.357.042-.12 0-.16.03-.16.082 0 .073.07.106.2.106.198 0 .457-.021.686-.021.24-.012.458-.012.568-.012.298 0 .607.012 1.035.032.428.01.976.031 1.723.031.378 0 .468 0 .537-.27.05-.208.13-.912.13-1.15 0-.103 0-.186-.08-.186-.07 0-.09.041-.11.155-.07.424-.188.642-.447.766-.26.124-.677.124-.936.124-1.016 0-1.175-.155-1.195-.87-.01-.3 0-1.252 0-1.604v-.818c0-.062.01-.103.06-.103.239 0 1.224.01 1.414.03.368.042.507.197.557.405.03.134.03.269.04.372 0 .052.02.093.09.093.09 0 .09-.113.09-.196 0-.073.029-.487.039-.694.04-.528.08-.694.08-.756 0-.062-.03-.083-.07-.083-.05 0-.09.052-.16.135-.09.104-.238.134-.477.155-.23.02-1.374.02-1.593.02-.06 0-.07-.04-.07-.113v-2.62c0-.072.02-.103.07-.103.199 0 1.244.021 1.413.042.498.062.598.186.667.373.05.124.06.3.06.372 0 .094.02.145.09.145.07 0 .09-.062.1-.114.02-.124.039-.58.05-.683.03-.476.079-.6.079-.673 0-.052-.01-.093-.06-.093-.05 0-.11.03-.16.041-.079.021-.238.042-.427.063-.19.01-2.17.01-2.49.01-.139 0-.368-.01-.627-.021-.249 0-.537-.01-.806-.01-.15 0-.219.02-.219.093 0 .072.06.093.169.093.14 0 .309.01.388.03.329.073.409.24.428.591.02.331.02.621.02 2.195v1.822zm6.292 0c0 .952 0 1.77-.05 2.205-.04.3-.09.527-.289.569a1.55 1.55 0 01-.358.042c-.12 0-.16.03-.16.082 0 .073.07.106.2.106.398 0 1.025-.031 1.214-.031.15 0 .887.03 1.464.03.13 0 .199-.032.199-.105 0-.051-.04-.082-.12-.082-.119 0-.338-.021-.487-.042-.299-.042-.359-.269-.388-.569-.05-.435-.05-1.253-.05-2.216v-.145c0-.062.03-.083.08-.083l.865.021c.07 0 .13.01.18.073.129.155.587.859.985 1.428.558.798.937 1.284 1.365 1.522.258.145.507.199 1.065.199h.946c.12 0 .189-.021.189-.106 0-.051-.04-.082-.12-.082-.08 0-.169-.011-.278-.031-.15-.031-.558-.104-1.115-.704-.588-.642-1.275-1.564-2.161-2.724 1.006-.848 1.314-1.552 1.314-2.319 0-.693-.398-1.22-.677-1.418-.537-.383-1.205-.445-1.832-.445-.308 0-1.065.031-1.404.031-.209 0-.836-.031-1.364-.031-.15 0-.219.02-.219.093s.06.093.17.093c.139 0 .308.01.388.031.328.073.408.239.428.59.02.332.02.622.02 2.196v1.822zm1.175-4.152c0-.083.02-.125.09-.145.099-.03.278-.041.527-.041.587 0 1.524.424 1.524 1.895 0 .848-.29 1.324-.588 1.552-.18.135-.309.176-.707.176-.249 0-.548-.03-.757-.103-.07-.031-.09-.073-.09-.187v-3.147zm7.099 7.3c.528 0 1.085-.093 1.583-.425.717-.487.936-1.202.936-1.802 0-.984-.428-1.698-1.633-2.64l-.279-.218c-.826-.652-1.055-1.014-1.055-1.49 0-.621.448-1.067 1.185-1.067.647 0 .936.311 1.085.508.21.269.259.59.259.683 0 .124.03.186.1.186.079 0 .109-.083.109-.31 0-.808.04-1.108.04-1.243 0-.072-.05-.103-.14-.124A4.643 4.643 0 0059.56 80c-1.384 0-2.3.818-2.3 1.957 0 .838.378 1.563 1.474 2.453l.458.373c.826.673.975 1.15.975 1.657 0 .549-.438 1.18-1.334 1.18-.617 0-1.205-.28-1.424-1.046a2.258 2.258 0 01-.09-.528c0-.083-.01-.176-.099-.176-.08 0-.11.114-.12.27-.01.165-.049.786-.049 1.356 0 .227.03.28.19.352.427.198.875.27 1.453.27zm4.889-3.148c0 1.004 0 1.822-.05 2.257-.03.3-.09.475-.289.517-.09.02-.21.042-.358.042-.12 0-.16.03-.16.082 0 .073.07.106.2.106.398 0 1.025-.031 1.254-.031.269 0 .896.03 1.553.03.11 0 .19-.032.19-.105 0-.051-.05-.082-.16-.082-.15 0-.368-.021-.508-.042-.298-.042-.368-.228-.398-.507-.04-.445-.04-1.263-.04-2.267v-1.822c0-1.574 0-1.864.02-2.196.02-.362.1-.538.368-.59.12-.02.2-.03.299-.03.1 0 .16-.021.16-.104 0-.062-.08-.083-.21-.083-.378 0-.966.031-1.214.031-.29 0-.917-.031-1.295-.031-.16 0-.238.02-.238.083 0 .083.06.103.159.103.12 0 .248.01.358.041.22.053.319.229.339.58.02.332.02.622.02 2.196v1.822zm5.824 0c0 .952 0 1.77-.05 2.205-.03.3-.09.527-.288.569-.09.02-.21.042-.359.042-.12 0-.16.03-.16.082 0 .073.07.106.2.106.398 0 1.025-.031 1.254-.031.28 0 .907.03 1.563.03.11 0 .19-.032.19-.105 0-.051-.05-.082-.16-.082-.149 0-.368-.021-.507-.042-.299-.042-.359-.269-.389-.559-.05-.445-.05-1.263-.05-2.215v-4.245l1.255.03c.886.022 1.155.312 1.175.58l.01.115c.01.155.03.207.11.207.06 0 .08-.062.09-.166 0-.27.03-.984.03-1.201 0-.155-.01-.218-.08-.218-.04 0-.12.021-.27.052-.149.02-.368.052-.686.052H68.34c-.328 0-.707-.02-.996-.052-.248-.02-.348-.124-.428-.124-.06 0-.09.062-.12.197-.02.083-.208 1.025-.208 1.19 0 .114.02.166.09.166.059 0 .089-.041.109-.124.02-.083.07-.207.169-.362.15-.229.388-.28.966-.3l1.484-.042v4.245zm7.766.3c.05 0 .08.02.1.072l.796 2.195c.05.124-.02.218-.09.238-.099.011-.139.031-.139.093 0 .073.12.073.299.085.796.02 1.523.02 1.882.02.368 0 .457-.02.457-.105 0-.072-.05-.082-.129-.082-.12 0-.268-.011-.418-.042-.21-.062-.498-.205-.876-1.134-.637-1.568-2.23-5.792-2.47-6.362-.099-.238-.159-.33-.248-.33-.1 0-.16.113-.279.413l-2.5 6.502c-.198.518-.387.87-.847.932-.08.01-.219.02-.309.02-.08 0-.12.021-.12.083 0 .085.06.106.19.106.52 0 1.067-.031 1.177-.031.308 0 .736.03 1.055.03.11 0 .17-.02.17-.105 0-.062-.03-.082-.15-.082h-.15c-.308 0-.398-.135-.398-.321 0-.125.05-.373.15-.632l.537-1.48c.02-.062.04-.083.09-.083h2.22zm-2.02-.518c-.041 0-.05-.03-.041-.072l.916-2.547c.01-.042.03-.093.06-.093s.04.051.05.093l.896 2.557c.01.031 0 .062-.05.062h-1.832zm7.178 3.366c.527 0 1.085-.093 1.583-.425.717-.487.936-1.202.936-1.802 0-.984-.428-1.698-1.633-2.64l-.28-.218c-.826-.652-1.054-1.014-1.054-1.49 0-.621.448-1.067 1.184-1.067.647 0 .936.311 1.086.508.209.269.258.59.258.683 0 .124.03.186.1.186.08 0 .11-.083.11-.31 0-.808.04-1.108.04-1.243 0-.072-.05-.103-.14-.124A4.637 4.637 0 0083.196 80c-1.384 0-2.3.818-2.3 1.957 0 .838.378 1.563 1.473 2.453l.458.373c.827.673.976 1.15.976 1.657 0 .549-.438 1.18-1.334 1.18-.617 0-1.205-.28-1.424-1.046a2.26 2.26 0 01-.09-.528c0-.083-.01-.176-.1-.176-.079 0-.109.114-.119.27-.01.165-.05.786-.05 1.356 0 .227.03.28.19.352.428.198.876.27 1.454.27zm-64.15 8.407c0 1.005 0 1.823-.05 2.257-.03.3-.09.477-.289.518-.09.021-.209.042-.358.042-.12 0-.16.03-.16.083 0 .072.07.105.2.105.398 0 1.025-.031 1.254-.031.269 0 .896.03 1.553.03.11 0 .19-.032.19-.104 0-.053-.05-.083-.16-.083-.149 0-.368-.021-.508-.042-.298-.041-.368-.228-.398-.507-.04-.445-.04-1.263-.04-2.268v-1.822c0-1.573 0-1.863.02-2.195.02-.362.1-.538.369-.59.12-.02.2-.03.299-.03.1 0 .159-.021.159-.104 0-.062-.08-.083-.21-.083-.378 0-.965.031-1.214.031-.289 0-.916-.031-1.294-.031-.16 0-.24.02-.24.083 0 .083.06.103.16.103.12 0 .249.01.358.042.22.052.32.228.339.58.02.331.02.62.02 2.194v1.822zm4.948-2.754h.03c.18.197 1.284 1.491 2.37 2.61 1.035 1.066 2.31 2.422 2.937 3.043.11.116.23.23.338.23.09 0 .13-.093.13-.323l.11-6.533c.01-.58.089-.797.367-.88.12-.03.2-.03.3-.03.119 0 .178-.032.178-.094 0-.083-.1-.093-.228-.093-.488 0-.866.031-.976.031-.209 0-.687-.031-1.205-.031-.15 0-.259.01-.259.093 0 .062.04.093.16.093.14 0 .378 0 .527.063.24.103.329.3.339.932l.1 4.648h-.05c-.17-.166-1.514-1.657-2.19-2.36a129.62 129.62 0 01-3.088-3.324c-.169-.186-.258-.32-.368-.32-.1 0-.13.144-.13.35l-.089 6.13c-.01.9-.05 1.201-.308 1.284-.14.041-.319.052-.449.052-.1 0-.159.02-.159.083 0 .095.09.105.22.105.517 0 .985-.031 1.074-.031.19 0 .588.03 1.235.03.14 0 .23-.02.23-.104 0-.063-.06-.083-.17-.083-.16 0-.348-.01-.518-.072-.199-.073-.328-.342-.348-1.15l-.11-4.348zm8.981 2.754c0 .953 0 1.771-.05 2.206-.04.3-.09.528-.289.57-.09.02-.209.04-.358.04-.12 0-.16.031-.16.084 0 .072.07.105.2.105.199 0 .458-.021.687-.021.239-.013.458-.013.567-.013.25 0 .598.033.976.064s.787.062 1.145.062c1.842 0 2.878-.736 3.335-1.223.558-.59 1.086-1.584 1.086-2.888 0-1.232-.468-2.092-.966-2.63-1.085-1.18-2.748-1.18-3.993-1.18-.597 0-1.224.03-1.533.03-.279 0-.906-.03-1.434-.03-.149 0-.219.02-.219.093 0 .072.06.093.17.093.14 0 .308.01.388.031.328.073.408.238.428.59.02.332.02.622.02 2.195v1.822zm1.244-1.987c0-.818 0-1.719.01-2.07 0-.115.03-.167.12-.208.08-.042.448-.072.647-.072.777 0 1.912.124 2.828 1.035.428.425.956 1.273.956 2.588 0 1.067-.2 2.009-.837 2.578-.597.538-1.274.746-2.29.746-.786 0-1.175-.218-1.304-.414-.08-.115-.1-.528-.11-.787-.01-.197-.02-.994-.02-2.092v-1.304zm11.002 5.137c2.53 0 4.123-1.876 4.123-4.247 0-2.37-1.544-3.872-4.023-3.872-2.987 0-4.112 2.288-4.112 4.058 0 1.833 1.155 4.06 4.012 4.06zm.419-.52c-1.912 0-3.057-1.708-3.057-3.862 0-2.577 1.304-3.24 2.45-3.24 1.632 0 2.917 1.439 2.917 3.758 0 2.992-1.613 3.344-2.31 3.344zm6.233-5.384h.029c.18.197 1.285 1.491 2.37 2.61 1.036 1.066 2.31 2.422 2.937 3.043.11.116.23.23.339.23.09 0 .129-.093.129-.323l.11-6.533c.01-.58.089-.797.368-.88.12-.03.199-.03.299-.03.119 0 .179-.032.179-.094 0-.083-.1-.093-.229-.093-.488 0-.866.031-.976.031-.209 0-.687-.031-1.204-.031-.15 0-.26.01-.26.093 0 .062.04.093.16.093.14 0 .378 0 .528.063.238.103.328.3.338.932l.1 4.648h-.05c-.17-.166-1.513-1.657-2.19-2.36a128.779 128.779 0 01-3.087-3.324c-.17-.186-.259-.32-.368-.32-.1 0-.13.144-.13.35l-.09 6.13c-.01.9-.05 1.201-.308 1.284-.14.041-.319.052-.448.052-.1 0-.16.02-.16.083 0 .095.09.105.22.105.517 0 .985-.031 1.075-.031.189 0 .587.03 1.235.03.139 0 .228-.02.228-.104 0-.063-.06-.083-.169-.083-.16 0-.348-.01-.518-.072-.199-.073-.328-.342-.348-1.15l-.11-4.348zm8.98 2.754c0 .953 0 1.771-.05 2.206-.04.3-.09.528-.288.57-.09.02-.21.04-.359.04-.12 0-.16.031-.16.084 0 .072.07.105.2.105.2 0 .458-.021.687-.021.239-.013.458-.013.567-.013.3 0 .608.013 1.036.033.428.01.976.031 1.723.031.378 0 .467 0 .537-.27.05-.208.13-.912.13-1.15 0-.103 0-.186-.08-.186-.07 0-.09.041-.11.155-.07.425-.189.642-.448.766-.259.125-.677.125-.935.125-1.016 0-1.175-.156-1.195-.87-.01-.3 0-1.253 0-1.605v-.818c0-.062.01-.103.06-.103.238 0 1.224.01 1.413.03.369.042.508.198.558.405.03.134.03.269.04.372 0 .052.02.094.089.094.09 0 .09-.115.09-.197 0-.073.03-.487.04-.694.04-.528.08-.693.08-.756 0-.062-.03-.082-.07-.082-.05 0-.09.051-.16.134-.09.103-.239.135-.478.156-.229.02-1.374.02-1.592.02-.06 0-.07-.041-.07-.114v-2.62c0-.071.02-.103.07-.103.198 0 1.244.021 1.413.042.498.062.597.186.667.373.05.124.06.3.06.372 0 .094.02.145.09.145.07 0 .089-.062.099-.113.02-.125.04-.58.05-.684.03-.476.08-.6.08-.673 0-.052-.01-.093-.06-.093-.05 0-.11.031-.16.041-.08.02-.239.042-.428.062-.189.01-2.17.01-2.489.01-.14 0-.368-.01-.627-.02-.249 0-.538-.01-.807-.01-.149 0-.219.02-.219.093 0 .072.06.093.17.093.139 0 .308.01.388.031.329.073.408.238.428.59.02.332.02.622.02 2.195v1.822zM67.186 99.674c.527 0 1.085-.093 1.583-.427.717-.486.936-1.2.936-1.801 0-.984-.428-1.698-1.633-2.64l-.279-.217c-.827-.653-1.055-1.015-1.055-1.491 0-.622.448-1.067 1.184-1.067.647 0 .937.31 1.086.507.209.27.258.59.258.684 0 .124.03.186.1.186.08 0 .11-.083.11-.31 0-.808.04-1.108.04-1.243 0-.072-.05-.103-.14-.124a4.653 4.653 0 00-1.324-.176c-1.384 0-2.3.818-2.3 1.957 0 .838.378 1.563 1.473 2.454l.458.372c.827.673.976 1.15.976 1.656 0 .55-.438 1.18-1.334 1.18-.617 0-1.205-.279-1.424-1.045a2.26 2.26 0 01-.09-.528c0-.083-.01-.176-.099-.176-.08 0-.11.114-.12.27-.01.165-.049.786-.049 1.356 0 .228.03.28.189.352.428.198.876.27 1.454.27zm4.888-3.15c0 1.005 0 1.823-.05 2.257-.03.3-.089.477-.288.518-.09.021-.21.042-.359.042-.12 0-.159.03-.159.083 0 .072.07.105.2.105.397 0 1.025-.031 1.254-.031.269 0 .896.03 1.553.03.11 0 .19-.032.19-.104 0-.053-.05-.083-.16-.083-.15 0-.369-.021-.508-.042-.299-.041-.368-.228-.398-.507-.04-.445-.04-1.263-.04-2.268v-1.822c0-1.573 0-1.863.02-2.195.02-.362.1-.538.368-.59.12-.02.2-.03.3-.03.099 0 .158-.021.158-.104 0-.062-.08-.083-.209-.083-.378 0-.965.031-1.214.031-.29 0-.917-.031-1.295-.031-.16 0-.239.02-.239.083 0 .083.06.103.16.103.12 0 .248.01.358.042.22.052.319.228.338.58.02.331.02.62.02 2.194v1.822zm7.12.3c.049 0 .079.021.099.073l.796 2.195c.05.124-.02.218-.09.238-.099.01-.138.031-.138.093 0 .073.119.073.298.085.796.02 1.524.02 1.882.02.368 0 .458-.02.458-.105 0-.072-.05-.082-.13-.082-.12 0-.268-.01-.418-.042-.209-.062-.498-.205-.876-1.133-.637-1.57-2.23-5.793-2.47-6.362-.099-.239-.159-.332-.248-.332-.1 0-.16.114-.279.414l-2.499 6.502c-.199.518-.388.87-.848.932-.08.01-.219.02-.308.02-.08 0-.12.021-.12.083 0 .085.06.106.189.106.52 0 1.067-.031 1.177-.031.308 0 .736.03 1.055.03.11 0 .17-.02.17-.105 0-.062-.03-.082-.15-.082h-.15c-.308 0-.398-.135-.398-.321 0-.125.05-.373.15-.632l.537-1.48c.02-.063.04-.083.09-.083h2.22zm-2.022-.517c-.04 0-.05-.031-.04-.072l.917-2.547c.01-.041.03-.094.059-.094.03 0 .04.053.05.094l.896 2.557c.01.031 0 .062-.05.062h-1.832z" />
   <path fill="#656263" d="M9.777 116.722a.373.373 0 01.073.19c0 .077-.162.23-.487.454-.458.566-1.078 1.523-1.86 2.872-.84 1.45-1.422 2.6-1.745 3.447.017.085.027.153.027.199 0 .129-.116.248-.351.36a.582.582 0 01-.247.07c-.093 0-.217-.09-.37-.268a.357.357 0 01-.09-.226c0-.113.054-.218.157-.313a17.697 17.697 0 00-.496-3.868c-.277-1.135-.577-1.945-.9-2.43a.514.514 0 00-.448-.255c-.202 0-.49.145-.866.437a.246.246 0 01-.147.045c-.107 0-.162-.04-.162-.12 0-.049.03-.102.09-.164a5.32 5.32 0 011.19-.918c.169-.102.306-.153.409-.153.168 0 .338.13.51.39.763 1.168 1.293 3.243 1.587 6.226.262-.546.754-1.489 1.481-2.824.668-1.232 1.048-1.917 1.142-2.054-.071.012-.146-.061-.224-.22a1.06 1.06 0 01-.118-.47c0-.125.036-.187.107-.187.086.004.172.006.257.006.1-.028.231-.115.391-.262.107-.097.214-.197.32-.296.106-.077.188-.117.245-.117.15 0 .323.15.525.449zm1.739 5.76c-.905 1.205-1.542 1.808-1.912 1.808-.174 0-.397-.125-.665-.377-.28-.137-.42-.317-.42-.547 0-.042.004-.088.012-.133.066-.532.202-1.12.408-1.763-.137-.073-.208-.143-.208-.208 0-.055.04-.081.118-.081.06 0 .12.017.186.051.33-.774.63-1.325.893-1.65.171-.217.326-.326.466-.326.062 0 .219.055.469.168-.02-.116.01-.184.094-.204h.263c.16 0 .24.03.24.088a.777.777 0 01-.017.099.746.746 0 00-.015.15c0 .141 0 .314.004.518.004.207.006.344.006.413 0 .48-.126.816-.38 1.006a1.266 1.266 0 01-.782.262c-.153 0-.407-.044-.76-.129-.065.121-.136.355-.214.705a4.77 4.77 0 00-.145 1.175c.004.2.065.301.185.301a.601.601 0 00.174-.036c.431-.158 1.034-.643 1.805-1.452.048-.05.098-.076.145-.076.071 0 .107.034.107.105 0 .042-.019.088-.057.134zm-.653-2.57c0-.15-.032-.226-.095-.226-.042 0-.101.03-.18.094-.364.305-.685.843-.962 1.61.075.01.207.023.392.035.301.012.528-.06.677-.217.111-.115.174-.307.183-.575-.009.198-.015-.042-.015-.72zm4.63-.144c0 .508-.067.992-.197 1.452-.04.141-.097.211-.168.211-.05 0-.167-.078-.345-.233-.09-.077-.112-.188-.069-.33.106-.354.157-.638.157-.85 0-.073-.013-.111-.044-.111-.044 0-.118.07-.218.21a11.195 11.195 0 00-1.738 3.534c-.124.415-.23.621-.313.621-.034 0-.181-.067-.443-.202-.126-.066-.17-.195-.128-.385.295-1.34.611-2.473.95-3.393-.276.301-.451.508-.526.621a.14.14 0 01-.122.07c-.063 0-.095-.029-.095-.088 0-.034.015-.074.045-.115.182-.23.426-.577.731-1.048.094-.17.187-.256.28-.256.067 0 .203.055.41.163.113.063.133.147.054.25-.082.113-.236.51-.463 1.193a17.459 17.459 0 00-.449 1.557c.508-1.175 1.084-2.21 1.73-3.11.121-.17.22-.255.295-.255.067 0 .158.045.275.138.156.02.254.046.296.076.063.048.095.14.095.28zm2.426-2.128c.06.046.09.098.09.157 0 .111-.16.286-.482.522-.211.153-.417.206-.614.163a.694.694 0 01-.29-.127.246.246 0 01-.06-.074c-.013-.023-.014-.045-.01-.06.012-.015.035-.02.07-.012.341-.311.566-.533.675-.668.086-.101.147-.15.185-.15.067 0 .212.083.435.249zm-.789 2.547c-.09.521-.322 1.392-.698 2.61.109-.102.258-.285.447-.553.027-.035.053-.051.078-.051.061 0 .069.053.023.163-.02.041-.176.307-.47.795-.223.371-.387.7-.492.989-.033.089-.095.132-.183.132-.09 0-.212-.043-.365-.132-.097-.054-.145-.096-.145-.123 0-.022.021-.074.061-.151.203-.367.426-.984.672-1.848.235-.837.367-1.46.397-1.867.011-.175-.006-.262-.052-.262-.032 0-.09.044-.177.129l-.347.337c-.123.115-.185.121-.185.018 0-.032.017-.071.051-.117.174-.256.36-.498.56-.726.058-.066.116-.1.171-.1.061 0 .149.042.263.127.172.048.268.076.287.088.084.055.128.155.128.303 0 .07-.007.15-.023.239zm3.764-3.465c.105.057.156.123.156.196 0 .052-.034.076-.104.076a.494.494 0 01-.071-.007.379.379 0 00-.07-.007c-.142 0-.314.16-.514.482-.18.286-.428.91-.744 1.871-.029.086-.04.135-.033.15.01.029.06.045.145.049.22.02.513.012.884-.024.126-.013.188.043.188.169 0 .085-.047.136-.144.156-.079.013-.49.048-1.235.105-.449 1.36-.72 2.51-.817 3.453-.004.05-.006.096-.006.133 0 .133.032.199.095.199.102 0 .405-.254.911-.762.06-.062.118-.094.174-.094.05 0 .078.022.09.066.01.046-.007.1-.05.162a9.23 9.23 0 01-.89 1.058c-.124.12-.225.18-.307.18-.082 0-.21-.066-.38-.203-.214-.058-.319-.175-.319-.35a.42.42 0 01.01-.093c.14-.998.409-2.23.811-3.691a18.085 18.085 0 01-.536-.081c-.07-.013-.107-.058-.107-.14 0-.088.039-.142.113-.162.074-.02.212-.061.414-.13.122-.04.242-.098.357-.174.398-1.282.712-2.113.939-2.492.131-.218.27-.326.42-.326.14 0 .349.078.62.233zm3.41 3.546c-.343.988-.58 1.817-.71 2.488.056-.055.13-.139.222-.25.091-.113.147-.178.17-.198.051-.07.109-.105.167-.105.056 0 .085.03.085.087a.237.237 0 01-.046.123 4.851 4.851 0 00-.699 1.633c-.032.155-.084.232-.15.232-.064 0-.182-.061-.352-.184-.1-.072-.158-.13-.174-.175-.018-.044-.018-.129 0-.256.157-.984.352-1.802.586-2.455-.324.548-.765 1.153-1.324 1.814-.489.58-.84.947-1.057 1.106-.157.113-.275.168-.357.168-.067 0-.17-.055-.307-.168a.574.574 0 01-.298-.512c0-.042.004-.092.01-.145.068-.574.31-1.24.728-2.003.418-.762.897-1.404 1.437-1.926.176-.171.332-.254.47-.25.133.006.389.19.767.551.032.032.05.064.05.1 0 .061-.04.093-.119.093a.207.207 0 01-.084-.018c-.263-.117-.477-.114-.637.012-.35.266-.737.738-1.163 1.413-.492.774-.788 1.472-.889 2.092a.54.54 0 00-.006.075c0 .097.038.147.113.147.126 0 .276-.091.452-.274.418-.423.864-.954 1.341-1.594.49-.662.802-1.162.941-1.5.1-.248.165-.422.195-.522.048-.174.101-.262.157-.262.055 0 .186.08.39.239.087.065.134.125.14.18a.59.59 0 01-.05.244zm3.21-.786c0 .174-.045.454-.135.837-.033.133-.07.219-.111.257a.63.63 0 01-.19.087 1.104 1.104 0 01-.258.081c-.056 0-.082-.038-.082-.117 0-.042.005-.097.02-.169.09-.383.125-.648.104-.797-.02-.151.023-.244.126-.282.183-.097.3-.147.353-.147.114 0 .173.083.173.25zm-.895 3.338c.011.464-.237.782-.744.952a1.165 1.165 0 01-.178.338.564.564 0 01-.381.162 1.547 1.547 0 01-.346-.015l-.811-.13c-.09-.015-.143-.07-.162-.168.015-.105.118-.167.313-.187a15.81 15.81 0 001.173-.144.578.578 0 00.415-.344.742.742 0 00.072-.343c0-.244-.116-.673-.35-1.29-.234-.601-.34-1.002-.325-1.202.028-.485.46-.822 1.29-1.012.082-.02.124.012.124.093 0 .045-.03.083-.09.109-.402.182-.603.407-.603.674 0 .106.017.237.055.393.037.157.15.534.336 1.132.138.43.208.758.212.982zm2.17-.012c.029.054-.01.185-.118.39-.31.609-.561 1.23-.754 1.86.078.038.048.106-.093.197-.14.094-.274.131-.4.111-.055-.007-.083-.057-.083-.15 0-.114.057-.388.173-.826.168-.623.329-1.04.481-1.25a.567.567 0 01.252-.193c.342-.123.523-.17.542-.139zm10.113-4.622c-.096.42-.35.951-.758 1.6-.406.647-.761 1.084-1.065 1.308-.212.158-.42.238-.626.238-.118 0-.406-.095-.86-.286-.09-.037-.134-.083-.134-.133 0-.077.1-.117.307-.117.34 0 .597-.071.777-.214.359-.284.696-.67 1.017-1.163.41-.623.655-1.236.733-1.837.046-.33-.063-.527-.324-.594a.888.888 0 00-.363-.004 4.806 4.806 0 00-1.672.395c-.622 2.338-1.194 4.205-1.717 5.604.03-.012.14-.077.33-.198.108-.066.194-.093.257-.088.11.02.214.134.319.338.086.167.128.292.128.373 0 .105-.065.15-.195.14-.093-.013-.248.043-.463.162a2.51 2.51 0 00-.606.454c-.081.085-.167.127-.257.127-.122 0-.273-.085-.452-.256-.11-.11-.16-.208-.146-.29.012-.065.071-.113.18-.14.908-2.178 1.586-4.17 2.029-5.976-1.401.655-2.102 1.264-2.102 1.832 0 .081.012.16.039.238.007.03.044.129.106.296.016.04.023.075.023.11 0 .108-.041.163-.124.163-.114 0-.337-.337-.666-1.012a.612.612 0 01-.072-.28c0-.228.14-.476.414-.744.19-.18.548-.428 1.075-.744.566-.333 1.07-.583 1.515-.754.044-.19.067-.345.067-.466 0-.155.036-.232.11-.232.101 0 .279.14.533.424.614-.186 1.03-.277 1.246-.273.414.007.708.234.884.68.222.17.372.304.446.4a.684.684 0 01.141.432c0 .119-.025.282-.074.488zm3.128 1.582c0 .508-.067.992-.197 1.453-.04.14-.097.21-.168.21-.051 0-.168-.077-.345-.232-.09-.077-.113-.189-.07-.331.106-.354.158-.637.158-.85 0-.073-.014-.11-.044-.11-.044 0-.119.069-.218.21a11.184 11.184 0 00-1.738 3.534c-.124.415-.23.62-.314.62-.034 0-.18-.067-.442-.202-.126-.065-.17-.194-.128-.384.294-1.34.61-2.473.95-3.394-.276.302-.452.508-.526.621a.14.14 0 01-.122.07c-.064 0-.096-.028-.096-.088 0-.033.015-.073.046-.115.181-.23.425-.577.73-1.048.094-.17.188-.255.281-.255.067 0 .202.055.409.162.114.064.133.147.055.25-.082.113-.236.51-.464 1.193a17.53 17.53 0 00-.448 1.558c.507-1.175 1.084-2.21 1.729-3.11.122-.17.221-.256.296-.256.067 0 .158.046.275.139.156.02.253.046.295.075.063.048.096.141.096.28zm3.65.69c-.007.346-.087.804-.24 1.374-.242.9-.586 1.598-1.029 2.094-.235.261-.496.395-.782.395-.113 0-.256-.026-.432-.076-.349-.024-.635-.139-.855-.343-.238-.224-.35-.514-.335-.867.015-.411.15-.985.408-1.72.283-.803.578-1.38.884-1.733.145-.17.265-.256.357-.256.128 0 .332.136.616.406.078-.037.239-.109.481-.214a.898.898 0 01.278-.063c.145 0 .308.14.487.424.115.173.17.368.162.58zm-.643.17c.027-.258.04-.423.04-.494 0-.163-.049-.245-.146-.245a.55.55 0 00-.145.024l-.867.367a.995.995 0 01-.174.064c-.028 0-.059-.038-.09-.111-.215.275-.415.672-.602 1.192a6.684 6.684 0 00-.302 1.094 3.108 3.108 0 00-.06.591c0 .597.174.89.53.873.14-.004.293-.061.457-.174.314-.22.605-.663.878-1.326a6.37 6.37 0 00.481-1.856zm5.514-5.511c.043.035.067.073.067.117 0 .077-.044.115-.134.115a.217.217 0 01-.107-.034c-.172-.093-.3-.14-.386-.14-.23 0-.488.24-.77.716-1.008 1.692-1.737 3.915-2.188 6.667.388-.682.678-1.164.867-1.446a8.329 8.329 0 011.208-1.46c.2-.19.382-.285.542-.285.082 0 .21.054.385.163.333.163.483.409.455.738a7.429 7.429 0 01-.544 2.215c-.29.708-.636 1.266-1.035 1.669-.11.113-.227.169-.345.169-.242 0-.578-.288-1.008-.862-.047-.065-.072-.12-.072-.168 0-.058.032-.088.095-.088s.127.028.185.082c.22.194.409.292.565.292.153 0 .3-.094.441-.28.258-.342.49-.804.699-1.39.238-.658.359-1.248.359-1.768 0-.2-.065-.301-.197-.301-.074 0-.158.041-.25.123-.46.41-.926.994-1.4 1.754-.5.812-.862 1.592-1.089 2.344-.042.143-.093.214-.156.214-.03 0-.069-.016-.119-.052a6.404 6.404 0 01-.324-.232.42.42 0 01-.11-.303c0-.062.01-.137.026-.227.437-2.468.996-4.57 1.678-6.306.515-1.308.977-2.155 1.387-2.548.107-.104.212-.157.313-.157.105 0 .237.063.397.192.187.159.374.318.565.477zm2.689 2.524c.06.046.09.097.09.157 0 .11-.16.285-.482.522-.211.152-.418.206-.614.162a.698.698 0 01-.29-.127.261.261 0 01-.06-.073c-.013-.024-.015-.046-.01-.06.012-.015.035-.02.07-.012.34-.312.566-.534.675-.669.086-.1.147-.15.185-.15.067 0 .212.083.435.25zm-.788 2.546c-.09.522-.323 1.393-.699 2.61.109-.102.258-.284.447-.552.026-.036.053-.052.078-.052.06 0 .069.054.023.163-.02.042-.176.307-.47.796a5.87 5.87 0 00-.492.988c-.033.09-.095.133-.183.133-.09 0-.212-.044-.365-.133-.097-.054-.145-.096-.145-.123 0-.022.021-.073.061-.151.203-.367.426-.984.672-1.847.235-.838.366-1.461.397-1.868.011-.174-.006-.262-.052-.262-.032 0-.091.044-.177.13l-.347.337c-.123.115-.186.12-.186.017 0-.031.018-.071.052-.117.174-.256.36-.498.56-.726.058-.066.115-.1.171-.1.061 0 .149.043.263.128.172.048.268.075.287.087.083.056.127.155.127.303 0 .07-.008.15-.022.239zm3.763-3.465c.105.058.156.123.156.197 0 .051-.034.075-.105.075a.496.496 0 01-.07-.007.404.404 0 00-.07-.008c-.142 0-.314.16-.514.482-.18.286-.427.911-.745 1.872-.028.085-.04.135-.032.15.01.028.06.044.145.048.22.02.513.013.884-.024.126-.012.189.044.189.17 0 .084-.048.136-.145.156-.079.012-.49.047-1.235.105-.448 1.36-.72 2.51-.817 3.453-.004.05-.006.095-.006.133 0 .133.032.198.095.198.101 0 .405-.254.91-.762.062-.061.119-.093.174-.093.05 0 .079.022.09.065.011.046-.006.1-.05.163-.303.415-.599.766-.889 1.058-.124.119-.225.18-.307.18-.082 0-.21-.067-.38-.204-.214-.057-.319-.174-.319-.35 0-.025.001-.057.01-.092.14-.999.409-2.23.811-3.692a18.117 18.117 0 01-.536-.08c-.07-.013-.107-.058-.107-.14 0-.089.038-.143.113-.162.074-.02.212-.062.414-.13.122-.041.242-.099.357-.174.399-1.282.712-2.114.939-2.492.131-.219.27-.326.42-.326.14 0 .349.077.62.232zm3.41 3.546c-.343.989-.58 1.818-.71 2.489.056-.056.13-.14.222-.25.091-.113.147-.179.17-.199.051-.07.108-.105.167-.105.056 0 .084.03.084.087a.239.239 0 01-.045.124 4.839 4.839 0 00-.699 1.633c-.032.155-.084.232-.15.232-.064 0-.182-.062-.352-.185-.1-.071-.158-.129-.173-.174-.02-.044-.02-.13 0-.256.156-.985.35-1.802.585-2.455-.324.548-.765 1.153-1.324 1.814-.488.579-.84.946-1.057 1.105-.157.113-.275.169-.357.169-.067 0-.17-.056-.307-.169a.574.574 0 01-.298-.512c0-.042.004-.091.011-.145.067-.573.31-1.24.728-2.002.417-.762.896-1.405 1.436-1.927.176-.17.333-.254.47-.25.134.007.39.19.767.552.033.032.05.063.05.099 0 .061-.04.093-.119.093a.209.209 0 01-.083-.018c-.264-.117-.478-.113-.638.013-.349.266-.736.738-1.162 1.413-.492.773-.788 1.472-.89 2.091a.54.54 0 00-.005.076c0 .097.038.146.112.146.127 0 .277-.09.453-.274.418-.422.864-.954 1.341-1.593.489-.663.802-1.163.941-1.5.1-.248.164-.423.195-.522.048-.175.101-.262.156-.262.056 0 .187.08.392.238.086.066.133.125.14.18a.574.574 0 01-.05.245zm3.21-.786c0 .175-.046.455-.135.838-.033.133-.071.218-.111.256a.64.64 0 01-.19.087 1.11 1.11 0 01-.259.082c-.055 0-.082-.038-.082-.118 0-.041.006-.097.021-.168.09-.383.124-.649.104-.798-.02-.15.022-.244.125-.282.183-.097.302-.147.354-.147.114 0 .173.084.173.25zm-.895 3.338c.012.465-.236.782-.744.953a1.16 1.16 0 01-.178.337.562.562 0 01-.381.163 1.543 1.543 0 01-.346-.016c-.221-.036-.49-.077-.81-.129-.09-.016-.144-.071-.163-.169.015-.105.118-.166.313-.186.265-.018.657-.067 1.174-.145a.577.577 0 00.414-.343.74.74 0 00.072-.344c0-.244-.116-.672-.35-1.29-.234-.6-.34-1.002-.325-1.202.028-.484.46-.822 1.29-1.012.082-.02.124.012.124.093 0 .046-.03.083-.09.11-.403.182-.603.406-.603.674 0 .105.017.236.055.393.037.156.15.534.336 1.131.138.43.208.758.212.982M64.11 122.808c.029.053-.01.184-.119.389-.308.61-.56 1.23-.753 1.861.078.038.048.105-.094.197-.139.093-.273.13-.398.11-.056-.006-.084-.057-.084-.15 0-.113.057-.387.173-.825.168-.624.328-1.04.481-1.25a.565.565 0 01.252-.193c.342-.123.523-.171.542-.14zm7.893-4.622c-.13 1.127-.473 2.384-1.028 3.767-.653 1.633-1.285 2.453-1.895 2.46-.369.004-.82-.202-1.348-.617a.168.168 0 01-.06-.133c0-.137.058-.204.179-.204.028 0 .059.007.087.024.321.17.596.258.823.262.496.015 1.042-.75 1.64-2.296.568-1.493.875-2.83.915-4.013.011-.383-.172-.575-.548-.575-.059 0-.125.006-.196.018-.29.041-.62.281-.988.72a4.294 4.294 0 00-.867 1.669.868.868 0 00-.034.232c0 .143.047.276.139.395l.258.268c.041.043.06.081.06.117 0 .073-.055.109-.167.109a.246.246 0 01-.111-.022c-.32-.198-.54-.359-.66-.484a.736.736 0 01-.212-.516c0-.182.067-.433.2-.75.195-.47.483-.929.867-1.38.366-.428.694-.708.984-.835.134-.063.41-.028.829.104.024-.035.064-.052.116-.052.145 0 .432.145.855.437.19.127.244.56.162 1.295zm4.338 1.738c-.494.957-.866 2.082-1.113 3.372.106-.19.231-.433.382-.726.017-.054.048-.082.088-.082.057 0 .084.038.084.112a.203.203 0 01-.015.075c-.239.566-.395 1.002-.47 1.308-.046.194-.105.29-.18.29-.074 0-.218-.076-.436-.227-.115-.085-.155-.236-.117-.452.157-.846.344-1.58.565-2.205-.72 1.219-1.324 2.116-1.813 2.693-.107.127-.225.19-.35.19-.106 0-.228-.043-.37-.132-.257-.046-.387-.187-.387-.42 0-.04.004-.089.012-.138.093-1.11.288-2.03.582-2.763-.063.062-.159.154-.285.274-.05.042-.085.054-.112.034-.03-.022-.025-.067.017-.133.2-.305.32-.508.357-.605a2.88 2.88 0 01.364-.703c.067-.085.138-.129.212-.129.101 0 .248.064.441.187.054.036.078.07.078.105l-.122.193c-.187.293-.384.813-.593 1.557-.227.806-.342 1.463-.346 1.971 0 .167.033.25.102.25.059 0 .156-.071.29-.216.286-.318.702-.917 1.246-1.802.48-.778.77-1.286.872-1.522.168-.397.303-.63.408-.699a.329.329 0 01.18-.069c.051 0 .152.04.301.12.15.084.224.144.224.181 0 .012-.014.028-.039.048a.18.18 0 00-.057.063zm2.931-.442c0 .174-.045.454-.135.837-.032.133-.07.219-.11.257a.637.637 0 01-.192.087 1.104 1.104 0 01-.257.081c-.056 0-.082-.038-.082-.117a.85.85 0 01.02-.169c.09-.383.125-.648.104-.797-.02-.151.023-.244.126-.282.183-.097.301-.147.353-.147.114 0 .173.083.173.25zm-.895 3.338c.011.464-.236.782-.744.952a1.174 1.174 0 01-.177.338.562.562 0 01-.382.162 1.543 1.543 0 01-.345-.015l-.811-.13c-.09-.015-.144-.07-.163-.168.016-.105.119-.167.313-.187.266-.017.657-.067 1.174-.144a.577.577 0 00.414-.344.742.742 0 00.072-.343c0-.244-.116-.673-.35-1.29-.234-.601-.34-1.002-.325-1.202.029-.485.46-.822 1.29-1.012.082-.02.124.012.124.093 0 .045-.03.083-.09.109-.402.182-.603.407-.603.674 0 .106.017.237.056.393.036.157.148.534.335 1.132.138.43.209.758.212.982zm4.205-6.098c.105.057.156.123.156.196 0 .052-.034.076-.105.076a.49.49 0 01-.07-.007.383.383 0 00-.071-.007c-.141 0-.313.16-.514.482-.179.286-.427.91-.744 1.871-.029.086-.04.135-.032.15.009.029.059.045.145.049.22.02.513.012.884-.024.125-.013.188.043.188.169 0 .085-.047.136-.145.156-.078.013-.49.048-1.234.105-.449 1.36-.72 2.51-.817 3.453-.004.05-.006.096-.006.133 0 .133.032.199.095.199.101 0 .405-.254.91-.762.061-.062.119-.094.174-.094.05 0 .078.022.09.066.01.046-.006.1-.05.162-.303.415-.6.767-.89 1.058-.123.12-.225.18-.306.18-.083 0-.21-.066-.38-.203-.214-.058-.319-.175-.319-.35 0-.025.001-.057.01-.093.139-.998.408-2.23.81-3.691a18.13 18.13 0 01-.536-.081c-.07-.013-.106-.058-.106-.14 0-.088.037-.142.112-.162.075-.02.212-.061.414-.13.122-.04.242-.098.357-.174.399-1.282.712-2.113.939-2.492.132-.218.27-.326.42-.326.141 0 .349.078.62.233zm1.878.918c.06.046.09.098.09.157 0 .111-.161.286-.482.522-.211.153-.418.206-.614.163a.699.699 0 01-.29-.127.26.26 0 01-.06-.074c-.013-.023-.015-.045-.01-.06.012-.015.035-.02.069-.012.342-.311.567-.533.676-.668.085-.101.147-.15.185-.15.067 0 .212.083.435.249zm-.789 2.547c-.09.521-.322 1.392-.698 2.61.109-.102.258-.285.446-.553.027-.035.054-.051.079-.051.06 0 .068.053.022.163-.018.041-.175.307-.469.795-.223.371-.387.7-.492.989-.033.089-.096.132-.183.132-.09 0-.212-.043-.365-.132-.097-.054-.145-.096-.145-.123 0-.022.02-.074.061-.151.202-.367.426-.984.672-1.848.235-.837.366-1.46.397-1.867.01-.175-.006-.262-.052-.262-.032 0-.091.044-.177.129l-.348.337c-.122.115-.185.121-.185.018 0-.032.017-.071.052-.117.174-.256.36-.498.559-.726.06-.066.117-.1.172-.1.06 0 .149.042.263.127.172.048.267.076.286.088.084.055.128.155.128.303 0 .07-.007.15-.023.239zm3.764-3.465c.105.057.156.123.156.196 0 .052-.034.076-.105.076a.495.495 0 01-.07-.007.378.378 0 00-.071-.007c-.141 0-.313.16-.513.482-.18.286-.428.91-.745 1.871-.028.086-.04.135-.032.15.01.029.06.045.145.049.22.02.513.012.884-.024.126-.013.188.043.188.169 0 .085-.047.136-.144.156-.079.013-.491.048-1.235.105-.449 1.36-.72 2.51-.817 3.453-.004.05-.006.096-.006.133 0 .133.032.199.095.199.101 0 .405-.254.91-.762.062-.062.119-.094.174-.094.05 0 .078.022.09.066.011.046-.006.1-.05.162-.303.415-.6.767-.889 1.058-.124.12-.225.18-.307.18-.082 0-.21-.066-.38-.203-.214-.058-.319-.175-.319-.35 0-.025.001-.057.01-.093.14-.998.409-2.23.811-3.691a17.968 17.968 0 01-.536-.081c-.07-.013-.107-.058-.107-.14 0-.088.038-.142.113-.162.074-.02.212-.061.414-.13.122-.04.242-.098.357-.174.398-1.282.712-2.113.939-2.492.131-.218.27-.326.42-.326.14 0 .349.078.62.233zm1.878.918c.06.046.09.098.09.157 0 .111-.16.286-.482.522-.212.153-.418.206-.614.163a.696.696 0 01-.29-.127.246.246 0 01-.06-.074c-.013-.023-.015-.045-.01-.06.012-.015.035-.02.07-.012.34-.311.566-.533.675-.668.086-.101.147-.15.185-.15.067 0 .212.083.435.249zm-.789 2.547c-.09.521-.322 1.392-.698 2.61.109-.102.258-.285.447-.553.026-.035.053-.051.078-.051.06 0 .068.053.023.163-.02.041-.176.307-.47.795-.223.371-.387.7-.492.989-.033.089-.096.132-.183.132-.09 0-.212-.043-.365-.132-.097-.054-.145-.096-.145-.123 0-.022.02-.074.06-.151.203-.367.427-.984.673-1.848.235-.837.366-1.46.397-1.867.011-.175-.006-.262-.052-.262-.032 0-.091.044-.177.129l-.348.337c-.121.115-.185.121-.185.018 0-.032.017-.071.052-.117.173-.256.36-.498.559-.726.06-.066.117-.1.172-.1.061 0 .149.042.263.127.172.048.267.076.286.088.084.055.128.155.128.303 0 .07-.007.15-.023.239zm4.497.08c-.344.99-.58 1.818-.71 2.49.055-.056.13-.14.221-.25.092-.114.147-.18.17-.199.051-.07.109-.105.168-.105.055 0 .084.03.084.087a.238.238 0 01-.046.123 4.838 4.838 0 00-.698 1.633c-.033.155-.084.232-.151.232-.063 0-.181-.061-.351-.184-.101-.072-.159-.13-.174-.175-.02-.044-.02-.129 0-.256.157-.984.351-1.802.586-2.455-.325.548-.765 1.153-1.325 1.814-.488.58-.84.947-1.057 1.106-.156.113-.275.168-.357.168-.067 0-.17-.055-.307-.168a.574.574 0 01-.298-.512c0-.042.004-.092.011-.145.067-.574.31-1.24.728-2.003.418-.762.897-1.404 1.437-1.926.175-.171.332-.254.47-.25.133.006.389.19.766.551.033.032.05.064.05.1 0 .061-.04.092-.118.092a.207.207 0 01-.084-.017c-.264-.118-.477-.114-.638.012-.349.266-.736.738-1.162 1.413-.492.774-.788 1.472-.89 2.091a.54.54 0 00-.005.076c0 .097.038.147.112.147.127 0 .277-.091.453-.274a15.29 15.29 0 001.341-1.594c.49-.663.802-1.163.941-1.5.1-.248.164-.423.195-.522.048-.175.101-.262.156-.262.056 0 .187.08.392.238.086.066.133.126.14.18a.59.59 0 01-.05.245M31.48 133.678c0 .84 0 1.53-.042 1.897-.033.254-.075.447-.243.481a1.26 1.26 0 01-.253.035c-.05 0-.067.026-.067.052 0 .055.042.072.135.072.126 0 .32-.017.488-.017.176-.01.32-.01.336-.01.126 0 .328.01.656.027.327.01.79.026 1.42.026.328 0 .395 0 .454-.229a8.8 8.8 0 00.11-.847c0-.061 0-.131-.05-.131-.043 0-.06.035-.077.131-.058.358-.16.533-.378.629-.219.096-.588.096-.807.096-.824 0-.95-.113-.975-.716-.01-.184 0-1.198 0-1.495v-.77c0-.035.017-.06.058-.06.144 0 .976.017 1.203.043.328.035.403.184.437.306.034.114.034.201.034.288 0 .044.016.079.058.079.06 0 .06-.096.06-.166 0-.061.016-.385.033-.56.025-.288.067-.437.067-.489 0-.053-.017-.07-.042-.07-.034 0-.067.044-.126.114-.076.087-.193.104-.395.122-.193.018-1.228.018-1.337.018-.042 0-.05-.027-.05-.088v-2.413c0-.06.017-.087.05-.087.092 0 1.01.009 1.152.026.454.053.538.157.597.297.042.105.05.254.05.315 0 .07.017.114.068.114.033 0 .05-.053.059-.097.017-.104.033-.489.042-.576.025-.245.067-.35.067-.411 0-.044-.009-.079-.034-.079-.042 0-.075.035-.118.044a2.196 2.196 0 01-.361.044c-.193.009-1.866.009-1.925.009l-.345-.018c-.185-.009-.412-.009-.605-.009-.092 0-.135.018-.135.07 0 .035.034.052.068.052.075 0 .218.01.286.027.277.06.344.2.361.498.017.28.017.524.017 1.888v1.539zm5.39 2.633c.403 0 .866-.052 1.177-.264.53-.358.689-.83.689-1.267 0-.638-.311-1.154-1.21-1.792l-.211-.149c-.731-.515-.958-.787-.958-1.259 0-.524.445-.804.984-.804.664 0 .907.28.958.367a1.4 1.4 0 01.109.367c.009.062.017.097.067.097.05.007.06-.046.06-.16 0-.505.033-.75.033-.785 0-.043-.017-.052-.076-.052s-.118 0-.26-.035a2.93 2.93 0 00-.765-.096c-.976 0-1.64.525-1.64 1.399 0 .516.26.97 1.06 1.59l.336.263c.655.507.933.76.933 1.294 0 .56-.378.987-1.11.987-.496 0-1.05-.192-1.169-.734-.025-.105-.025-.21-.025-.27 0-.062-.025-.088-.067-.088s-.059.044-.059.122c-.009.123-.042.42-.042.787 0 .201.01.227.11.28.302.15.731.203 1.076.203zm5.565-5.378l.925.018c.706.017.866.184.89.41l.01.08c.009.105.025.13.059.13.033 0 .067-.034.067-.095 0-.088.025-.621.025-.848 0-.044 0-.088-.033-.088-.034 0-.101.018-.21.035a3.543 3.543 0 01-.53.035h-2.792c-.084 0-.37-.009-.58-.035-.201-.026-.277-.087-.328-.087-.025 0-.058.096-.075.14-.01.06-.16.725-.16.804 0 .044.034.06.05.06.034 0 .06-.008.076-.069.026-.052.034-.105.118-.236.11-.175.286-.227.748-.236l1.068-.017v3.12c0 .717 0 1.303-.034 1.609-.025.218-.067.367-.218.402a.94.94 0 01-.219.035c-.042 0-.059.026-.059.053 0 .045.034.062.118.062.219 0 .731-.026.765-.026.042 0 .513.026.916.026.085 0 .118-.027.118-.062 0-.027-.009-.062-.059-.062-.067 0-.235-.017-.336-.035-.227-.034-.26-.175-.286-.393-.034-.306-.034-.892-.034-1.609v-3.12zm2.37 5.254c.286 0 .471-.227.471-.507s-.201-.454-.462-.454c-.328 0-.462.28-.462.48 0 .22.134.481.454.481zm6.66-4.248c.006-1.338.04-2.203.04-2.273 0-.088-.024-.184-.091-.184-.06 0-.127.053-.202.105l-1.623 1.128c-.033.026-.059.061-.059.087 0 .035.034.08.06.08.033 0 .058-.01.1-.036.21-.105.799-.42.959-.42.134 0 .15.096.15.271V133.557c0 .873 0 1.625-.024 2.01-.017.27-.076.402-.353.455-.16.034-.572.06-.673.06-.034 0-.067.035-.067.07 0 .046.05.063.143.063.537 0 1.244-.026 1.286-.026.042 0 .58.026 1.21.026.101 0 .143-.017.143-.062 0-.036-.042-.07-.075-.07a4.83 4.83 0 01-.555-.053c-.27-.061-.303-.192-.336-.463-.042-.385-.05-1.137-.042-2.01l.009-1.618zm2.378 2.701c0 1.058.858 1.697 1.909 1.697 1.202 0 2-.91 2-1.924 0-1.075-.907-1.609-1.462-1.906.47-.245 1.202-.77 1.202-1.687 0-.857-.664-1.338-1.539-1.338-1.227 0-1.79.9-1.79 1.565 0 .778.52 1.241 1.177 1.644-.766.315-1.497.97-1.497 1.95zm1.976 1.363c-.782 0-1.328-.672-1.328-1.45 0-.875.512-1.408 1.135-1.723.756.411 1.48.831 1.48 1.784 0 .778-.514 1.39-1.287 1.39zm.033-6.223c.648 0 1.051.48 1.051 1.145 0 .891-.571 1.241-.9 1.442-.688-.385-1.243-.752-1.243-1.486 0-.48.336-1.101 1.092-1.101zm5.843 1.162c0-.48.01-1.18.01-1.311 0-.088-.026-.149-.085-.149-.058 0-.11.061-.176.158-.269.385-3.001 4.23-3.052 4.292a.326.326 0 00-.075.184c0 .078.075.104.176.104h2.564c0 .289.017.962-.017 1.347-.025.262-.084.445-.361.49-.135.017-.32.026-.395.026-.042 0-.068.034-.068.07 0 .045.042.062.135.062.462 0 .917-.026.975-.026.059 0 .597.026 1.06.026.092 0 .134-.017.134-.062 0-.036-.034-.07-.076-.07-.084 0-.252-.01-.37-.035-.269-.07-.336-.219-.361-.481-.034-.385-.017-1.058-.017-1.347h.773c.101 0 .135-.026.177-.113.034-.105.076-.306.076-.35 0-.043 0-.105-.042-.105-.034 0-.118.096-.345.096h-.64v-2.806zm-.639 2.806h-2.152c.16-.218 2.01-2.867 2.136-3.094h.016v3.094zm4.364-4.266c-1.16 0-2.01.831-2.01 2.037 0 .734.505 1.687 1.699 1.687.336 0 .765-.13 1.009-.402.025-.026.033-.044.033-.07 0-.026-.017-.06-.042-.06s-.059.017-.11.052c-.108.07-.276.157-.672.157-.227 0-1.26-.288-1.26-1.74 0-.69.395-1.337 1.151-1.337.74 0 1.387.778 1.387 2.308 0 2.054-1.294 3.506-2.286 4.074-.051.027-.085.07-.085.124 0 .052.034.087.068.087a.308.308 0 00.134-.035c1.026-.535 2.91-2.047 2.91-4.504 0-1.329-.74-2.378-1.926-2.378M70.345 132.528H94.7v.575H70.345v-.575zM.5 111.059h94.675v.699H.5v-.7zM27.866 132.528H1.347v.575h26.519v-.575z" />
</svg>
