<svg xmlns="http://www.w3.org/2000/svg" baseProfile="tiny" viewBox="0 0 1393 1430">
  <path fill="#444" d="M257 1135l-64 150h-26l-38-87-39 87H63L0 1135h46l30 82 35-82h32l34 82 32-82h48v-1zM322 1284h-45v-149h45v149zM515 1284h-55l-57-69v69h-45v-148h45v66l54-66h49l-55 69 64 79zM580 1284h-45v-148h45v148zM789 1284h-45v-86l-40 50h-4l-40-50v86h-43v-148h41l46 56 46-56h41v148h-2zM939 1284H827v-148h110v30h-65v27h62v30h-62v32h67v29zM1121 1212c0 15-3 27-8 37-6 9-12 17-20 22-11 8-25 13-45 13h-80v-148h62c9 0 17 0 24 1s13 2 18 4 10 4 13 6c4 2 7 5 10 7 5 4 3 3 13 15 4 6 7 12 9 20s4 15 4 23zm-46-2c0-12-2-21-7-28s-10-11-17-14c-6-2-13-3-20-3h-19v88h19c12 0 22-3 30-8 10-6 14-17 14-35M1193 1284h-45v-145h45v145zM1393 1284h-46l-12-30h-64l-12 30h-46l66-148h49l65 148zm-68-57l-22-54-22 54h44z"/>
  <path fill="#666" d="M320 1421h-27v-89h27v89zM439 1421h-24l-46-50v50h-27v-88h24l46 49v-49h27v88zM553 1379c0 9-2 16-5 22s-7 10-12 13c-6 5-15 8-27 8h-48v-89h37c6 0 10 0 14 1s8 1 11 2 6 2 8 4c2 1 4 3 6 4 3 2 6 5 8 9 2 3 4 7 5 12s3 8 3 14zm-28-2c0-7-1-13-4-17s-6-7-10-8-8-2-12-2h-11v53h11c7 0 13-2 18-5 6-3 8-10 8-21zM664 1377c0 8-2 16-6 23s-10 13-17 17-17 6-28 6-20-2-28-6-13-10-17-17-6-14-6-22 2-15 6-22 9-13 17-17 17-6 28-6c8 0 16 1 22 4 6 2 12 6 16 9s7 9 9 15c3 4 4 10 4 16zm-27 0c0-3 0-6-1-9s-2-5-4-7-4-4-7-5-6-2-10-2c-7 0-13 2-17 6s-6 10-6 16 2 12 6 17 10 6 17 6c5 0 9-1 13-3 3-2 6-5 8-8 0-3 1-7 1-11zM776 1421h-24l-46-50v50h-27v-89h24l46 49v-49h27v89zM865 1421h-67v-89h66v18h-39v16h37v18h-37v19h40v18zM945 1395c0 6-1 10-4 14s-7 7-12 9-11 3-18 3h-7c-3 0-6-1-11-2-4-1-9-3-14-5v-22c4 3 9 5 13 7s9 3 14 3 7-1 9-2 2-3 2-4c0-2-1-4-3-6s-6-3-10-5c-5-2-9-4-13-7-4-2-7-5-9-9s-4-8-4-13 1-9 4-13 6-7 11-9 11-3 18-3c5 0 10 0 14 1s8 2 10 3c3 1 5 2 6 3v21c-4-3-8-5-12-7s-9-3-14-3c-3 0-6 1-7 2s-2 3-2 5 1 3 2 5 4 3 8 5c7 3 12 6 16 9s7 6 10 9c2 1 3 6 3 11zM990 1421h-27v-88h27v88zM1110 1421h-28l-7-18h-39l-7 18h-27l39-89h30l39 89zm-41-33l-13-32-13 32h26z"/>
  <g>
    <path fill="#900" d="M527 186c0-96 78-174 174-174s174 78 174 174-78 174-174 174-174-78-174-174v1z"/>
    <path fill="#396" d="M911 291c65 58 106 142 106 236 0 162-122 296-279 314V464l173-173zM385 527c0-94 41-178 105-236l173 173v377c-156-18-278-152-278-314z"/>
    <path fill="#069" d="M175 535c0-154 66-291 171-388l96 96c-78 70-127 172-127 286 0 213 173 386 386 386s386-173 386-386c0-114-49-215-127-286l96-96c105 96 171 234 171 388 0 290-235 526-526 526-290-1-526-236-526-526z"/>
  </g>
</svg>
