<?xml version="1.0" standalone="no"?>
<!DOCTYPE svg PUBLIC "-//W3C//DTD SVG 20010904//EN"
 "http://www.w3.org/TR/2001/REC-SVG-20010904/DTD/svg10.dtd">
<svg version="1.0" xmlns="http://www.w3.org/2000/svg"
 width="700.000000pt" height="700.000000pt" viewBox="0 0 700.000000 700.000000"
 preserveAspectRatio="xMidYMid meet">
<metadata>
Created by potrace 1.11, written by Peter Selinger 2001-2013
</metadata>
<g transform="translate(0.000000,700.000000) scale(0.100000,-0.100000)"
fill="#000000" stroke="none">
<path d="M3220 6993 c-286 -29 -466 -62 -699 -129 -455 -131 -894 -364 -1271
-677 -120 -99 -370 -354 -465 -472 -374 -467 -610 -969 -724 -1541 -48 -240
-55 -334 -56 -674 0 -348 7 -419 61 -695 186 -933 763 -1767 1574 -2273 469
-293 954 -459 1513 -518 189 -20 620 -14 797 10 1078 151 1993 749 2551 1669
266 438 428 928 485 1459 22 209 15 633 -15 828 -81 547 -263 1024 -554 1460
-584 873 -1518 1438 -2555 1544 -138 14 -536 20 -642 9z m670 -148 c811 -96
1570 -486 2105 -1084 481 -537 765 -1167 851 -1881 24 -197 24 -562 0 -760
-138 -1164 -847 -2156 -1900 -2660 -911 -436 -1985 -436 -2894 0 -1055 507
-1757 1492 -1898 2660 -24 197 -24 562 0 760 91 764 417 1445 949 1983 590
597 1357 946 2202 1001 115 7 451 -4 585 -19z"/>
<path d="M1660 5065 c-7 -9 -10 -27 -6 -45 5 -27 3 -30 -18 -30 -45 0 -198
-31 -227 -45 -40 -21 -37 -48 11 -102 22 -25 40 -51 40 -58 0 -17 -102 -61
-194 -84 -42 -11 -84 -25 -91 -31 -22 -18 -18 -73 7 -105 l22 -28 -60 6 c-32
4 -80 10 -106 13 -87 12 -99 -27 -43 -133 19 -36 35 -72 35 -78 0 -7 -14 -18
-30 -25 -72 -30 -89 -104 -46 -195 23 -48 46 -80 131 -181 l40 -47 5 -171 c7
-223 17 -246 160 -383 55 -52 100 -101 100 -108 0 -6 -11 -22 -25 -35 -50 -47
-21 -99 70 -125 91 -26 197 -38 290 -31 l90 6 -50 -23 c-94 -45 -107 -88 -31
-107 91 -23 115 -31 135 -48 13 -10 40 -75 72 -167 64 -187 131 -340 203 -458
265 -443 692 -672 1291 -694 528 -19 945 122 1240 421 188 189 288 364 412
716 30 85 63 165 75 177 11 12 49 29 86 39 86 22 102 31 102 53 0 23 -25 45
-80 70 l-45 21 86 -6 c152 -12 341 30 375 81 14 21 14 27 0 54 -9 16 -23 34
-33 39 -15 9 -14 12 5 37 12 15 60 63 106 106 121 114 146 185 146 422 l0 119
51 56 c69 78 127 166 139 214 19 69 2 105 -78 158 l-23 15 41 84 c39 80 40 85
24 109 -14 22 -21 24 -63 18 -25 -3 -73 -9 -105 -13 l-60 -6 22 35 c43 69 20
101 -92 128 -86 22 -196 67 -196 82 0 4 18 28 41 53 31 33 40 50 37 72 -4 37
-31 49 -162 70 l-106 17 0 31 c0 17 -5 36 -12 43 -41 41 -300 -34 -449 -131
-31 -20 -99 -69 -150 -109 -123 -96 -176 -132 -223 -152 -51 -21 -72 -20 -107
5 -47 33 -227 115 -316 143 -134 42 -267 65 -445 78 -405 29 -782 -45 -1059
-207 -33 -19 -68 -35 -78 -35 -37 0 -140 63 -271 165 -94 73 -169 122 -245
160 -162 81 -333 118 -365 80z m183 -79 c147 -37 249 -93 457 -249 71 -53 170
-107 196 -107 10 0 -4 -15 -32 -37 -27 -20 -61 -47 -76 -61 -24 -22 -32 -24
-79 -18 -71 10 -96 21 -285 131 -202 119 -264 147 -306 143 -40 -4 -47 -30
-24 -88 l15 -39 -62 -28 c-197 -88 -233 -130 -153 -183 l28 -18 -28 -6 c-16
-3 -58 -10 -94 -16 -91 -15 -129 -29 -140 -50 -17 -31 -12 -50 25 -94 34 -42
44 -66 26 -66 -4 0 -20 -11 -35 -25 -19 -17 -26 -34 -26 -60 0 -38 8 -48 97
-126 l41 -36 -26 -53 c-20 -41 -26 -68 -26 -120 0 -125 49 -183 290 -345 60
-41 125 -80 142 -86 18 -6 32 -15 32 -20 0 -12 -68 -29 -117 -29 -56 0 -73 -8
-73 -35 0 -19 8 -25 48 -34 42 -9 157 -30 171 -31 3 -1 -30 -15 -74 -32 -44
-17 -90 -40 -102 -51 -25 -22 -49 -20 -160 14 l-65 20 22 24 c49 52 24 107
-110 240 -45 44 -88 96 -97 115 -12 26 -18 83 -22 220 -7 208 3 179 -104 306
-61 73 -103 147 -92 164 3 6 24 19 45 30 64 32 76 79 41 156 l-18 40 76 0 c59
-1 84 4 111 20 46 26 52 68 16 111 l-25 30 49 12 c75 19 184 75 209 107 27 35
23 82 -10 127 -11 16 -19 30 -17 33 3 2 45 11 94 20 96 18 134 40 134 81 0 28
-4 28 113 -1z m3457 6 c0 -50 40 -72 167 -92 l73 -12 -25 -36 c-29 -42 -33
-97 -9 -130 19 -27 89 -64 183 -95 l70 -24 -26 -36 c-52 -74 -3 -121 130 -121
65 -1 76 -3 71 -16 -46 -104 -39 -140 31 -182 25 -15 45 -33 45 -40 0 -29
-121 -200 -191 -272 -1 0 -5 -86 -8 -191 -6 -183 -7 -192 -33 -235 -15 -25
-61 -78 -104 -119 -118 -114 -140 -166 -90 -216 l23 -23 -66 -21 c-106 -32
-140 -36 -154 -17 -7 9 -50 32 -96 51 -94 37 -97 34 43 60 89 17 106 27 90 53
-8 12 -30 19 -75 23 -69 6 -109 16 -109 27 0 4 26 20 57 37 85 44 261 172 324
234 40 41 59 69 68 104 17 61 9 144 -20 204 l-22 46 71 66 c56 52 72 73 72 95
0 27 -40 77 -70 88 -16 5 -16 6 51 97 17 23 19 33 10 50 -17 31 -43 41 -159
62 -58 10 -107 21 -109 23 -2 2 10 9 26 16 32 13 46 39 37 68 -7 22 -101 79
-185 112 -34 14 -61 30 -61 36 0 6 7 28 15 48 12 27 13 42 5 56 -24 45 -98 17
-371 -143 -139 -82 -223 -117 -279 -117 -17 0 -52 21 -98 57 l-72 57 37 15
c50 19 115 61 241 154 132 97 259 162 375 192 112 29 117 30 117 7z m-1415
-206 c307 -54 545 -165 785 -365 47 -39 89 -70 94 -68 5 2 14 11 20 20 8 13 4
23 -22 49 l-32 33 67 18 c39 10 142 58 254 117 103 55 190 100 193 100 4 0 4
-11 0 -24 -10 -41 13 -63 115 -112 l100 -46 -29 -25 c-38 -32 -46 -58 -25 -89
20 -32 43 -40 163 -60 53 -9 99 -18 101 -20 2 -1 -6 -16 -18 -32 -51 -72 -46
-120 13 -149 l35 -16 -64 -61 c-81 -77 -86 -96 -46 -177 60 -124 39 -186 -101
-303 -108 -90 -266 -198 -281 -193 -6 2 -19 46 -28 98 -23 128 -35 170 -62
210 -24 36 -52 48 -70 30 -7 -7 -1 -29 21 -73 21 -41 40 -106 56 -184 26 -131
41 -164 87 -187 l31 -14 -39 -7 c-49 -10 -83 -32 -83 -55 0 -25 14 -35 90 -64
l65 -24 -82 -7 c-131 -12 -136 -52 -13 -102 69 -29 87 -44 52 -44 -10 0 -41
-11 -69 -25 -60 -30 -72 -52 -139 -240 -178 -503 -455 -799 -881 -941 -269
-90 -633 -117 -961 -69 -401 58 -705 231 -924 525 -106 143 -175 282 -264 530
-55 154 -83 192 -158 212 -25 7 -46 15 -46 18 0 3 33 21 73 40 72 35 94 63 65
81 -7 5 -46 9 -85 9 -40 0 -73 3 -73 8 0 4 28 18 63 31 69 26 87 38 87 55 0
24 -19 39 -71 56 -30 10 -47 19 -38 19 14 1 79 63 79 76 0 2 11 61 25 131 17
81 35 144 52 174 28 51 26 80 -6 80 -42 0 -86 -108 -112 -272 -6 -43 -16 -78
-22 -78 -30 0 -225 143 -337 247 -88 81 -100 145 -44 255 38 74 33 92 -42 167
-36 36 -60 67 -54 69 6 2 25 16 41 30 27 22 30 30 26 60 -4 18 -18 49 -32 68
-31 40 -35 37 94 59 52 9 107 23 122 30 50 26 50 76 -1 119 l-29 24 97 42 c53
23 103 50 110 59 7 9 12 31 10 49 -2 17 -2 32 0 32 3 0 71 -35 151 -77 232
-122 253 -132 309 -144 l53 -11 -30 -34 c-30 -34 -32 -58 -6 -68 8 -2 49 25
92 60 258 216 533 338 856 379 141 18 553 13 672 -9z"/>
<path d="M2773 3909 c-78 -23 -116 -145 -78 -246 48 -124 187 -206 284 -167
83 33 111 146 62 248 -33 66 -117 149 -168 164 -46 14 -56 14 -100 1z m151
-91 c27 -31 36 -51 36 -78 0 -44 -14 -60 -55 -60 -73 0 -130 95 -95 161 7 13
21 19 45 19 27 0 40 -8 69 -42z"/>
<path d="M4145 3902 c-50 -24 -130 -108 -155 -165 -40 -87 -20 -191 46 -233
63 -42 186 -7 249 70 48 59 67 109 66 178 0 127 -100 200 -206 150z m73 -54
c7 -7 12 -32 12 -56 0 -37 -6 -50 -35 -79 -29 -29 -40 -34 -72 -31 -30 2 -39
8 -47 29 -13 37 -1 72 38 113 35 38 80 48 104 24z"/>
<path d="M3447 3326 c-89 -25 -144 -102 -168 -240 -16 -95 -7 -236 21 -308 24
-65 99 -153 153 -182 33 -18 34 -20 29 -70 -2 -28 -10 -57 -18 -65 -23 -25
-117 -26 -193 -1 -82 26 -102 24 -115 -12 -13 -37 4 -54 73 -75 85 -25 177
-22 237 7 l49 25 49 -24 c80 -40 238 -30 297 18 20 16 22 23 14 47 -13 37 -37
40 -113 15 -72 -25 -129 -27 -177 -7 -34 14 -35 17 -35 69 0 54 0 54 51 87
109 71 159 183 159 359 0 123 -16 200 -54 265 -48 82 -156 120 -259 92z"/>
</g>
</svg>
