<svg xmlns="http://www.w3.org/2000/svg" viewBox="0 0 858.3 858.3">
  <style>
    .st3,.st4{fill:#575757}.st4{stroke:#575757;stroke-width:3.0283;stroke-linecap:round;stroke-linejoin:round;stroke-miterlimit:10}
  </style>
  <circle cx="429.3" cy="429.3" r="420" fill="#fff"/>
  <path fill="#282828" d="M428.9 0C192 0 0 192 0 428.9s192 428.9 428.9 428.9 428.9-192 428.9-428.9S665.7 0 428.9 0zM725 375.1c-5.8 6.3 5.6 45.5-11.2 61.4-19.8 18.7-26.2 24.6-21.9 29.1s8.3 5.6 5.2 8.5c-7.1 6.5-48 12.8-52.4 7.5-8.6.2-16.4.4-12.9 2.4 6.1 3.5 31.8 12 22.1 14s-21.3 3.6-24.5 13.3c-16.4 49-45.9 154.4-198.5 154.4s-182-105.3-198.5-154.4c-3.2-9.7-14.8-11.3-24.5-13.3-9.8-2 16-10.5 22.1-14 3.5-2-4.3-2.2-12.9-2.4-4.4 5.3-45.2-1-52.4-7.5-3.1-2.9.9-4 5.2-8.5s-2.1-10.4-21.9-29.1c-16.8-15.9-5.4-55.1-11.2-61.4-14.6-16.1-23.4-26.8-23.4-36.5 0-5 7.7-7.1 12.5-10.6s-6.9-20-8.6-25.5c-.7-2.1 20.4 6.5 32.3.8 7.4-3.6-19.9-16-1-18 10.2-1.1 27.5-9.4 29.5-11.6 5.6-6-4.8-16-8.7-19s21.6-6 29.8-7.5c5.9-1.1 3.8-6.3 3.1-9.3-.2-1 .4-2.1 1.3-2.1 42.8 3.6 65.9 29 84.6 41.9 19 13 28.6 8.9 28.6 8.9 42.6-24.9 84.5-27.4 113.9-27.4s71.3 2.6 113.9 27.4c0 0 9.6 4.1 28.6-8.9 18.8-12.8 41.8-38.3 84.6-41.9.9-.1 1.5 1.1 1.3 2.1-.7 3-2.8 8.2 3.1 9.3 8.2 1.5 33.7 4.5 29.8 7.5-3.9 3-14.3 13-8.7 19 2.1 2.2 19.3 10.6 29.5 11.6 18.9 2-8.4 14.4-1 18 11.9 5.8 33-2.9 32.3-.8-1.7 5.5-13.4 22-8.6 25.5s12.5 5.6 12.5 10.6c.3 9.6-8.4 20.4-23 36.5z"/>
  <path fill="#212121" d="M857.8 428.9c0-6.6-.3-16.7-.6-23.3L748 298.1l-3.5 4.4c-1.7 5.5-13.4 22-8.6 25.5s12.5 5.6 12.5 10.6c0 9.7-8.7 20.4-23.4 36.5-5.8 6.3 5.6 45.5-11.2 61.4-19.8 18.7-26.2 24.6-21.9 29.1s8.3 5.6 5.2 8.5c-7.1 6.5-48 12.8-52.4 7.5-8.6.2-16.4.4-12.9 2.4 6.1 3.5 31.8 12 22.1 14s-21.3 3.6-24.5 13.3c-16.4 49-45.9 154.4-198.5 154.4-77.2 0-122.9-27-151.3-60l-2.6 2.6 240.4 240.4c194.4-40.9 340.4-213.3 340.4-419.8z"/>
  <path d="M317.8 288.2c-.6.2-.9.3-1.3.4-.4.1-.8.2-1.2.2-.8.1-1.6.2-2.4.2-1.6 0-3.1-.1-4.6-.3-3-.5-5.9-1.4-8.6-2.4-5.5-2.2-10.6-5.2-15.4-8.5-4.7-3.3-9.2-6.8-13.8-10.2-4.5-3.4-9.1-6.7-13.8-9.7-9.4-6-19.4-10.9-30-14-5.3-1.6-10.7-2.7-16.1-3.4-1.4-.2-2.7-.4-4.1-.5l-2.1-.2-1-.1h.4c.1 0 .3 0 .4-.1.3-.1.6-.2.8-.3.5-.2.7-.5.9-.7.3-.4.4-.7.5-1v-.6-.2.1l.1.2c.2.6.4 1.3.6 2.2.2.8.4 1.7.4 2.8.1 1.1 0 2.3-.5 3.7-.5 1.4-1.6 2.8-2.7 3.6-1.2.8-2.3 1.3-3.4 1.5l-.8.2-.6.1-1.1.2-2.1.4-8.4 1.4c-2.8.5-5.5 1-8.2 1.6-1.3.3-2.7.6-3.9.9-1.2.3-2.5.7-3.3 1.1-.2.1-.3.2-.1.1.1-.1.2-.1.6-.6.1-.1.1-.2.3-.4.1-.2.2-.3.3-.6.1-.3.2-.6.2-.9v-1.1c0-.3-.1-.6-.3-.9l-.3-.6c-.2-.2-.2-.3-.3-.4l-.3-.3-.2-.2c-.1-.1 0 0 .1 0l.2.2.9.8c1.2 1 2.4 2.1 3.5 3.2 2.2 2.3 4.3 4.7 6 8 .8 1.7 1.5 3.6 1.6 6.1.1 2.4-.8 5.3-2.5 7.2l-.3.4-.2.2-.2.2c-.4.4-.6.5-.8.7-.5.3-.8.6-1.2.9-.7.5-1.4.9-2.1 1.3-1.4.8-2.7 1.5-4 2.1-5.4 2.6-10.8 4.9-16.7 6.6-1.5.4-3 .8-4.6 1.1-.8.2-1.6.3-2.5.4l-1 .1-.8.1c-.5.1-1 .2-1.4.3-.4.1-.6.3-.4.1.1-.1.4-.3.6-.7.3-.4.5-1.1.5-1.6s-.1-.8-.1-.9c0-.1 0-.1 0 0 .2.4 1 1.4 1.9 2.3l3 3.1c.5.6 1.1 1.2 1.7 1.9.6.8 1.2 1.5 1.9 2.9.3.7.7 1.6.8 2.9v1c0 .4-.1.7-.2 1.1-.2.8-.5 1.5-.9 2.2-.8 1.3-1.8 1.9-2.6 2.4l-.6.3-.4.2-.6.3c-3.5 1.5-7 2-10.2 2.1-3.3.1-6.4-.1-9.4-.5s-6-1-8.8-1.6c-1.4-.3-2.8-.6-4-.8-.3-.1-.6-.1-.7-.1-.1 0-.1 0 0 0h.4c.1 0 .3 0 .5-.1.2 0 .7-.2 1-.4.7-.4 1.3-.6 2.1-1.9.7-.9 1-2.6.9-3.3-.1-1-.3-1.4-.2-1.1v.1l.1.3c.1.2.2.5.3.7.5 1.1 1.1 2.3 1.8 3.5l2 3.8c1.4 2.6 2.7 5.2 4 8.2.6 1.5 1.2 3.1 1.6 5 .2 1 .4 2.1.3 3.5 0 .7-.1 1.5-.4 2.4-.3.9-.8 1.9-1.5 2.8l-1.2 1.2-.2.2-.1.1-.3.2c-.4.3-.7.5-1.1.7-.7.5-1.4.9-2.1 1.2l-3.7 2c-1.1.6-2 1.3-2.6 1.7-.3.2-.4.4-.4.4s.1-.1.1-.3v-.1 1c0 .5.1 1 .2 1.5.2 1 .6 2.1 1 3.1 1.8 4.3 4.9 8.7 8.3 13 3.4 4.3 7.1 8.5 10.9 12.7l1.5 1.7c1.2 1.4 1.7 2.7 2.1 3.8.7 2.2.8 3.8.9 5.5.2 3.2.1 6.1 0 9-.2 5.8-.5 11.3-.3 16.8.1 5.4.6 10.8 2 15.6.7 2.4 1.6 4.7 2.8 6.6.6 1 1.2 1.9 2 2.8.4.4.7.8 1.1 1.2l1.5 1.5c4.1 4 8.2 7.9 12.2 12.1 2 2.1 4 4.2 6 6.7 1 1.2 2 2.5 2.9 4.2.5.8.9 1.8 1.2 3 .3 1.2.5 2.7.1 4.3-.4 1.6-1.2 2.9-2 3.8l-.3.3-.2.2-.4.4-.9.8c-1.2 1.1-2.4 2-3.4 2.8-.4.3-.8.8-.6.5.1-.1.3-.6.3-1.3 0-.7-.3-1.1-.4-1.2-.1-.1-.1-.1 0 0s.2.2.4.3c.3.3.8.5 1.3.8 2.1 1.1 4.6 2.1 7.2 2.9 2.6.8 5.2 1.6 7.9 2.3 2.7.7 5.4 1.3 8.1 1.9 2.7.6 5.5 1.1 8.2 1.5 2.8.4 5.5.8 8.3 1 1.4.1 2.7.1 4.1.1.7 0 1.3-.1 1.9-.2.6-.1 1.2-.3 1.5-.6l.2-.1c.4-.3 1-.2 1.3.2.2.3.2.8 0 1.1-.6.8-1.4 1.3-2.1 1.6-.7.3-1.5.6-2.2.8-1.5.4-3 .6-4.4.8-2.9.3-5.9.5-8.8.4-2.9 0-5.8-.2-8.7-.4-2.9-.3-5.8-.6-8.7-1.1-2.9-.5-5.8-1-8.6-1.7-2.9-.8-5.8-1.6-8.8-3-.8-.4-1.5-.8-2.4-1.3-.4-.3-.9-.6-1.3-1s-.9-.8-1.4-1.6c-.5-.7-1-1.8-1.1-3.2 0-1.4.5-2.6.9-3.3.5-.7.9-1.2 1.2-1.6l1-1c1.2-1.1 2.2-1.9 3.1-2.8l.7-.6.3-.3.1-.2v-.1c.1-.2 0-.1 0 .1-.1.2 0 .2-.1.1-.1-.2-.2-.5-.5-.9-.5-.8-1.2-1.8-2.1-2.8-1.7-1.9-3.6-3.9-5.6-5.8-4-3.9-8.2-7.7-12.4-11.5l-1.6-1.4c-.6-.6-1.2-1.2-1.8-1.9-1.1-1.3-2.2-2.7-3-4.1-1.8-2.9-3-5.9-3.9-9-1.8-6.1-2.4-12.2-2.7-18.1-.2-5.9 0-11.8.1-17.4 0-2.8.1-5.6-.1-8-.1-1.2-.3-2.4-.4-2.9-.1-.3-.2-.3.1 0l-1.4-1.5c-3.9-4.2-7.7-8.5-11.4-13.1-1.8-2.3-3.7-4.7-5.4-7.2-1.7-2.6-3.3-5.3-4.6-8.4-.6-1.6-1.2-3.2-1.6-5-.2-.9-.3-1.8-.4-2.7 0-.5-.1-.9-.1-1.4v-.8c0-.4 0-.8.1-1.2.2-1.6.8-3.1 1.5-4.2.7-1.2 1.6-2 2.4-2.8 1.6-1.4 3.1-2.3 4.4-3.1l3.8-2.1c.6-.3 1.1-.6 1.6-.9l.7-.5.2-.1.1-.1c.1 0 0 0 0 0-.2.1-.3.3-.5.5-.3.3-.4.7-.5.9-.1.2-.1.3-.1.3s0-.3-.1-.7c-.2-.8-.5-1.9-1-3.1-.9-2.3-2.2-4.7-3.5-7.2l-2-3.8c-.7-1.3-1.4-2.6-2.1-4.1-.2-.4-.3-.8-.5-1.2l-.3-.7-.1-.2c.1.2-.2-.4-.3-1.4-.1-.8.2-2.6.9-3.6.9-1.3 1.5-1.6 2.3-2 .4-.2 1-.4 1.3-.4.3-.1.6-.1.8-.1h.9c.5 0 .8 0 1.1.1.6.1 1 .1 1.4.2 1.6.3 3 .6 4.3.9 2.7.6 5.4 1.1 8 1.5 2.6.4 5.2.5 7.6.5 2.4-.1 4.7-.5 6.4-1.2.1 0 .2-.1.3-.1l.1-.1s-.1 0-.1.1c-.2.1-.5.3-1 1s-.7 1.7-.6 2.3c.1.6.2.8.2.9.1.1-.2-.3-.5-.6-.3-.4-.7-.8-1.1-1.3l-3-3.1c-.5-.6-1.1-1.2-1.6-1.9-.6-.7-1.2-1.5-1.7-2.5-.3-.5-.6-1.1-.9-1.9-.3-.8-.5-1.8-.4-3 0-1.2.5-2.6 1.1-3.6.7-1 1.4-1.7 2.1-2.2 1.4-.9 2.5-1.3 3.5-1.6 1-.3 1.9-.5 2.8-.6.4-.1.9-.1 1.3-.2l1.1-.1c.6-.1 1.2-.1 1.8-.3 1.2-.2 2.5-.5 3.7-.9 5-1.4 10.2-3.4 15.1-5.7 1.2-.6 2.4-1.2 3.5-1.8.6-.3 1.1-.6 1.6-.9.2-.1.4-.3.5-.4 0 0 .1-.1 0 0l-.1.1v-.1c.1-.1.2-.2.2-.3 0-.1.1-.2.1-.4 0-.4-.2-1.2-.6-2.1-.8-1.8-2.4-3.8-4.1-5.7-.9-.9-1.8-1.8-2.7-2.6l-.7-.6-.2-.1-.2-.1c-.1-.1-.3-.2-.4-.3-.1-.1-.3-.3-.4-.5-.2-.2-.3-.3-.5-.6s-.3-.6-.5-.9c-.1-.4-.3-.8-.3-1.2-.1-.4-.1-.9 0-1.3 0-.4.1-.8.3-1.2.1-.4.3-.6.4-.9.2-.3.3-.5.4-.6.6-.7 1-1 1.4-1.3.7-.5 1.2-.7 1.7-.9 1.9-.8 3.3-1.1 4.9-1.5 1.5-.3 2.9-.6 4.4-.9 2.9-.5 5.7-1 8.6-1.4l8.5-1.2 2.1-.3 1-.2.5-.1.3-.1c.3-.1.5-.2.5-.2s-.2.2-.2.3c0 .1.1-.1 0-.5 0-.4-.1-.9-.2-1.4-.1-.6-.3-1.2-.5-2l-.1-.3v-.2l-.1-.4c-.1-.6-.1-1.1 0-1.6.2-1 .5-2 1.3-3 .4-.5.9-1 1.7-1.4.4-.2.8-.3 1.3-.4.2 0 .5-.1.7-.1h.7l1.1.1 2.2.3c1.5.2 2.9.4 4.4.6 5.8.9 11.5 2.4 17.1 4.2 11.2 3.7 21.6 9.2 31.2 15.8 4.8 3.3 9.4 6.8 13.8 10.3 4.5 3.6 8.8 7.2 13.3 10.6 4.5 3.3 9.1 6.4 14.1 8.6 2.5 1.1 5.1 2 7.7 2.5 1.3.3 2.6.4 3.9.5.6 0 1.3 0 1.9-.1.3 0 .6-.1.9-.1.3-.1.6-.1.7-.2l.3-.1c1-.3 2 .3 2.2 1.3.5.9.1 1.9-.8 2.2z" class="st3"/>
  <path d="M289.6 308.5c-2.2.2-4.1.2-6.2.2-2 0-4-.2-6.1-.4-4-.5-8-1.4-11.9-2.8-1.9-.7-3.9-1.6-5.7-2.5-1.8-.9-3.5-1.8-5.2-2.7l-10.3-5.5c-6.8-3.6-13.6-7.4-20.5-10.8-3.4-1.7-6.9-3.4-10.3-5-1.7-.8-3.4-1.5-5-2-.4-.1-.8-.2-1.1-.3-.3-.1-.6-.1-.5-.1H207.1c.1 0 .3 0 .4-.1.1 0 .2 0 .2-.1.1 0 .3-.1.4-.2.1-.1.3-.2.4-.3.1-.1.3-.2.5-.4.4-.3.7-.8.8-1.1.2-.4.3-.9.4-1.2v-1.4s-.1-.1 0-.1l.1.3.2.6c.6 1.7 1.4 3.4 2.2 5.2.4.9.8 1.9 1.2 3 .4 1.1.7 2.3.9 3.9.1.8.1 1.8-.2 3-.3 1.2-1 2.6-2.1 3.5-.5.5-1.1.8-1.6 1.1-.3.1-.5.2-.8.3l-.5.2c-.3.1-.7.3-1.2.4-1.7.7-3.4 1.4-5.2 2.2-3.5 1.5-6.9 3.2-10.3 4.8-1.7.8-3.4 1.7-5 2.6-1.6.9-3.2 1.8-4.5 2.7-.3.2-.6.4-.8.6-.1.1-.2.1-.2.2l.1-.1s0-.1.1-.1c0-.1.1-.1.1-.2 0 0 .1-.3.2-.4l.1-.3c0-.2.1-.3.1-.5s.1-.8 0-1.3c-.1-.4-.2-1.1-.5-1.5-.2-.4-.6-.8-.8-1.1-.2-.2-.5-.4-.7-.5-.1-.1-.3-.2-.5-.2 0 0 .1 0 .1.1l1.5.6c2 .9 3.8 1.8 5.7 2.9.9.6 1.9 1.2 2.8 1.9 1 .7 1.9 1.5 2.9 2.7.5.6 1 1.3 1.5 2.3l.2.4.2.5c.1.3.2.6.3 1 .1.7.2 1.6 0 2.5-.2.9-.5 1.7-.9 2.4-.2.3-.4.6-.7.9-.2.3-.4.5-.7.7-.2.2-.4.4-.6.5-.2.2-.4.3-.6.5-.5.3-.9.5-1.2.7-.7.3-1.3.5-1.9.7-.6.2-1.1.3-1.6.5-1.1.3-2.1.5-3.1.7-2 .4-4 .8-5.9 1.1l-11.4 1.9c-1.9.3-3.7.7-5.5 1.1-1.7.4-3.6.9-4.7 1.3-.3.1-.5.2-.4.2.1 0 0 0 .1-.1l.1-.1.2-.2.1-.1.1-.2c.1-.2.2-.3.3-.5.1-.2.2-.5.2-.7.1-.3.1-.6.1-.9 0-.6-.1-1.2-.3-1.6 0-.1-.1-.2-.1-.3l-.1-.2c-.1-.1-.2-.3-.2-.4l.4.5.8 1.1c1.2 1.5 2.4 3 3.7 4.6 1.3 1.6 2.5 3.3 3.7 5.2.6 1 1.2 2 1.7 3.3.1.3.3.7.4 1 .1.4.2.7.3 1.2.2.8.3 1.9.2 3.2-.1 1.3-.9 3-2 4.1l-.4.4-.4.3-.4.3c-.2.1-.3.2-.3.2l-.7.4-2.7 1.4c-.8.4-1.6.8-2.3 1.3-.7.4-1.2.8-1.6 1.1l-.2.2-.1.1s.1-.1.1-.2c.1-.2 0-.4 0-.5v-.1-.1s-.1-.1 0-.1v.1s.1.2.2.2c.2.2.4.5.7.7.5.5 1.2 1.1 1.9 1.7 2.8 2.4 5.9 4.8 9 7.8 1.5 1.5 3.1 3.2 4.5 5.6.7 1.2 1.3 2.8 1.4 4.8 0 .5 0 1.1-.1 1.6s-.2 1.1-.4 1.6-.4 1-.7 1.4l-.4.6-.4.5c-.9 1.2-1.7 2.6-2.5 4.1-.7 1.5-1.4 3.1-1.8 4.7-1 3.2-1.5 6.6-1.2 9.8.2 3.2 1.2 6.3 2.9 9.1l.6 1 .8 1c.5.6.9 1.3 1.6 1.9l1.8 1.8 2.2 1.9c2.9 2.5 5.8 5 8.8 7.5 5.9 4.9 11.9 9.7 18.1 14.1 3.1 2.2 6.3 4.3 9.5 6.2 3.2 1.9 6.6 3.6 9.8 4.4l.2.1c1.3.3 2.2 1.7 1.8 3-.3 1.3-1.6 2.1-2.9 1.9l-1.6-.3c-.5-.1-1.1-.2-1.6-.4-1-.3-2-.6-3-1-1.9-.7-3.8-1.6-5.6-2.5-3.6-1.8-7-3.8-10.3-5.9-6.7-4.2-13.1-8.8-19.3-13.5-3.1-2.4-6.2-4.8-9.2-7.3l-2.3-1.9c-.8-.7-1.6-1.5-2.4-2.2-.8-.7-1.5-1.6-2.2-2.5l-1.1-1.3c-.3-.5-.6-1-.9-1.4-2.5-3.8-4-8.3-4.4-12.8-.5-4.5.1-9 1.2-13.2 1.2-4.2 2.9-8.2 5.7-12l.1-.1-.1.1c0 .1-.1.1 0 .2v.1c0 .1 0-.2-.3-.7-.5-.9-1.6-2.2-2.9-3.4-2.5-2.4-5.5-4.7-8.7-7.3-.8-.7-1.6-1.4-2.4-2.2-.4-.4-.9-.9-1.3-1.4-.2-.3-.4-.5-.7-.9l-.4-.5c-.1-.2-.3-.5-.4-.7-.3-.5-.4-1-.6-1.4-.2-.5-.3-.9-.3-1.5-.2-1.1-.1-2.3.2-3.4.2-.5.4-1.1.6-1.5.2-.4.5-.9.8-1.3.3-.3.5-.7.8-1 .3-.3.5-.6.8-.8 1.1-1 2.2-1.7 3.1-2.3 1-.6 1.9-1.1 2.8-1.6l2.5-1.3.6-.3c.1 0 0 0 0 0l-.1.1-.1.1c-.1 0-.1.1-.2.1-.4.4-.8 1.2-.8 1.5-.1.3 0 .5 0 .3 0 0-.1-.1-.1-.2l-.1-.3c-.2-.5-.6-1.2-1-1.9-.9-1.4-2-2.8-3.1-4.3-1.2-1.4-2.4-2.9-3.6-4.5l-1-1.2-.5-.7c-.1-.2-.3-.4-.4-.7-.1-.1-.1-.2-.2-.4s-.1-.3-.2-.5c-.2-.6-.4-1.5-.4-2.3 0-.4.1-.8.2-1.2.1-.4.2-.7.4-1 .1-.3.3-.5.4-.8.1-.1.2-.3.2-.4l.2-.3c.1-.2.3-.4.4-.5l.4-.4c.3-.3.5-.4.7-.5.9-.6 1.5-.9 2.2-1.1 2.4-1 4.4-1.4 6.5-1.9 2-.4 4-.8 5.9-1.1l11.5-1.9c1.9-.3 3.8-.6 5.5-1 .9-.2 1.8-.4 2.6-.6.8-.2 1.6-.5 2-.6.1 0 .1-.1 0 0l-.1.1c-.1 0-.1.1-.1.2-.1.1-.2.2-.2.3-.2.3-.3.6-.4 1-.1.8.1 1.4.1 1.5.1.2 0 .1-.1-.1-.2-.3-.8-.8-1.4-1.2-.6-.5-1.3-.9-2-1.4-1.4-.9-3-1.7-4.6-2.4-.4-.2-.8-.4-1.2-.5l-.2-.1c-.3-.1-.5-.2-.8-.4-.3-.2-.7-.5-1-.8-.4-.3-.8-.9-1.1-1.4-.3-.6-.5-1.3-.6-1.9-.1-.6 0-1.3.1-1.6 0-.2.1-.4.2-.6.1-.2.1-.3.2-.5.1-.3.3-.6.4-.7.1-.2.2-.4.3-.5l.3-.4c.2-.3.3-.4.5-.6.3-.3.6-.6.9-.8.5-.5 1-.8 1.5-1.1 1.9-1.3 3.7-2.3 5.5-3.2 1.8-1 3.6-1.8 5.4-2.7 3.6-1.7 7.2-3.3 10.8-4.9 1.8-.8 3.6-1.5 5.6-2.2.5-.2 1-.4 1.6-.6l.2-.1h-.1c-.1 0-.2.1-.4.3-.3.3-.6.8-.6 1-.1.2 0 .2 0 .1 0-.3-.2-1-.4-1.8s-.6-1.6-.9-2.4c-.7-1.7-1.5-3.5-2.2-5.5l-.3-.8-.1-.4c0-.1-.1-.4-.2-.6l-.1-.3c0-.1 0-.2-.1-.4v-1.1c.1-.5.2-1.1.5-1.6.2-.5.6-1 1.1-1.4.2-.2.4-.4.6-.5l.6-.3c.2-.1.5-.2.6-.2l.4-.1c.3-.1.6-.1.8-.1H207.3c1.1.1 1.7.3 2.4.4.6.2 1.2.4 1.7.5 2.1.8 3.9 1.6 5.7 2.5 3.6 1.7 7.1 3.6 10.5 5.5 6.8 3.8 13.6 7.7 20.3 11.6l10 5.9 5 2.9c1.6.9 3.2 1.7 4.9 2.4 3.3 1.4 6.9 2.3 10.5 3 1.8.3 3.7.6 5.5.7 1.8.2 3.8.2 5.5.2h.1c1.4 0 2.5 1 2.6 2.4-.1 1.7-1.1 2.8-2.4 2.9zM394.6 557c.3.2.8.4 1.3.6.5.2.9.4 1.4.6 1 .4 2 .8 3 1.1 2 .7 4 1.2 6.1 1.6 4.1.8 8.2 1.1 12 .4 1.9-.3 3.7-.9 5.4-1.7.4-.2.8-.4 1.2-.7.4-.2.8-.5 1.2-.8.4-.3.8-.6 1.1-.9l.3-.2.1-.1-.1.1-.2.2c-.1.1-.2.3-.3.4l-.1.2v.2c-.1.1-.1.3-.1.4v-.1c.2-.8.3-1.9.3-3 .1-1.1.1-2.2.2-3.4.1-2.3.2-4.6.2-6.9 0-1.8 1.5-3.2 3.3-3.2 1.7 0 3.1 1.4 3.2 3 .2 2.4.3 4.7.4 7 .1 1.2.1 2.4.1 3.6 0 1.2 0 2.4-.1 3.9 0 .2-.1.4-.1.7l-.1.5c0 .2-.2.5-.3.8 0 0-.1.1-.1.2l-.1.3c-.1.2-.2.3-.3.5l-.2.2-.1.1-.2.2-.4.4c-.5.5-1 1-1.5 1.4-.5.4-1 .9-1.6 1.3-.6.4-1.1.8-1.7 1.1-2.3 1.4-4.9 2.5-7.5 3.2-5.2 1.4-10.5 1.5-15.6 1-2.5-.3-5-.7-7.5-1.3-1.2-.3-2.5-.6-3.7-1l-1.8-.6c-.6-.2-1.2-.4-2-.7l-.2-.1c-3-1.2-4.4-4.6-3.2-7.5s4.6-4.4 7.5-3.2c.4 0 .6.1.8.2z" class="st3"/>
  <path d="M356.5 383.2c-8.6-7.2-25.3-6.7-27.8 10-2.2 14.5 5.7 23.1 11.4 28.9 6.1 6.2 25.9 13 31.5-3.3s-8-29.7-15.1-35.6zm6.6 20.3c-3.1 9-14 5.2-17.4 1.8-3.1-3.2-7.5-7.9-6.3-15.9 1.4-9.2 10.6-9.5 15.4-5.5 3.9 3.2 11.4 10.6 8.3 19.6z" class="st4"/>
  <path d="M627.5 401.4c2.2 2.3 3.8 5 5 7.6 1.2 2.7 2.1 5.4 2.8 8.1 1.4 5.4 2.2 10.8 3 16 .4 2.6.8 5.2 1.2 7.7.5 2.5 1.1 5 2 6.5 2 3.4 6.6 5.4 11.4 6.3 2.4.5 4.9.8 7.5.9 1.3.1 2.6.1 3.9.1H666l.4.1c.3.1.1-.2 1.6.6 3 4.9-1.5 5.6-.5 5.3-.3.2-.4.2-.6.3-.3.1-.5.2-.7.2-.4.1-.8.2-1.1.3-2.8.7-5.4 1.1-8.1 1.5l-7.8 1.3c-2.6.5-5.2.9-7.7 1.5-1.2.3-2.5.6-3.6 1-.5.2-1.1.4-1.5.6-.2.1-.3.2-.3.2l.1-.1c0-.1.1-.2.2-.3 0-.1.2-.4.2-.6.1-.3 0-.6 0-.8-.1-.3-.1-.4-.2-.6-.2-.3-.3-.4-.3-.4l.1.1.2.1c.5.3 1 .5 1.6.8 1.1.5 2.3 1 3.5 1.5 2.4 1 4.9 1.9 7.4 2.8 2.5.9 5 1.9 7.5 2.9 1.3.5 2.5 1.1 3.9 1.7.7.3 1.3.7 2.1 1.2.4.3.8.5 1.3 1.1.1.1.2.3.4.5.1.2.3.5.4.8.1.4.3.7.3 1.3 0 .5-.1 1.2-.3 1.6-.5 1-1 1.3-1.4 1.6-.2.1-.4.2-.5.3l-.4.2c-.6.2-.9.3-1.3.4-.8.2-1.5.3-2.2.4-1.4.2-2.8.3-4.2.4-2.7.2-5.4.2-8.1.3-2.7.1-5.3.1-7.9.2-1.3.1-2.6.1-3.8.3-.6.1-1.2.1-1.6.2-.2 0-.4.1-.2 0 0 0 .2-.1.3-.2.2-.2.5-.4.7-1 .2-.6.2-1.4.1-1.8-.1-.4-.4-.7-.4-.8l-.2-.2c-.1 0 0 0 0 0h.1l.1.1c.2.1.5.3.8.4.5.3 1.1.5 1.7.8 1.2.5 2.4 1 3.6 1.6l7.4 3.1c2.5 1.1 5 2.2 7.5 3.6.6.4 1.3.8 2 1.2.3.2.7.5 1.1.8.4.3.8.7 1.2 1.5.1.2.2.4.3.7l.3.9c.1.7 0 1.7-.4 2.4-.2.3-.4.7-.6.9-.2.2-.4.4-.6.5-.2.2-.4.3-.5.4-.2.1-.3.2-.5.2-.6.3-1 .4-1.5.5l-.6.1-.5.1c-5.2 1.1-10.4 2-14.6 4-2.1 1-3.9 2.3-5.1 3.9l-.5.6c-.2.2-.3.4-.4.7-.1.2-.3.4-.4.7l-.3.7c-.1.3-.2.4-.3.8l-.3.9-.6 1.9c-1.6 5.1-3.3 10.1-5 15.2-6.8 20.3-15.2 40.4-26.8 58.8-5.8 9.2-12.4 17.9-19.8 26-7.4 8-15.7 15.3-24.6 21.7-8.9 6.4-18.5 11.9-28.5 16.5-10 4.5-20.4 8.1-31 10.9-21.2 5.4-43.1 7.6-64.8 7.7-21.7-.1-43.5-2.3-64.8-7.7-10.6-2.8-21-6.4-31-10.9-10-4.6-19.6-10.1-28.5-16.5-8.9-6.4-17.2-13.7-24.6-21.7-7.4-8-14.1-16.8-19.8-26-11.6-18.4-20-38.5-26.8-58.8-1.7-5.1-3.3-10.2-5-15.2l-.6-1.9-.3-.9c-.1-.3-.2-.5-.3-.8l-.3-.7c-.1-.2-.3-.4-.4-.7-.1-.2-.2-.5-.4-.7l-.5-.6c-1.2-1.6-3-2.9-5.1-3.9-4.2-2-9.4-3-14.6-4l-.5-.1-.6-.1c-.5-.1-.9-.2-1.5-.5-.1-.1-.3-.1-.5-.2s-.3-.2-.5-.4c-.2-.1-.4-.3-.6-.5-.2-.2-.4-.5-.6-.9-.4-.7-.5-1.7-.4-2.4.1-.4.2-.6.3-.9.1-.2.2-.5.3-.7.5-.7.9-1.1 1.2-1.5.4-.3.7-.6 1.1-.8.7-.5 1.3-.9 2-1.2 2.5-1.4 5-2.5 7.5-3.6l7.4-3.1c1.2-.5 2.4-1 3.6-1.6.6-.3 1.2-.5 1.7-.8.3-.1.5-.3.8-.4.1 0 .1-.1.1-.1h.1l-.2.2c-.1.1-.3.4-.4.8-.2.5-.2 1.3.1 1.8.3.6.5.8.7 1 .1.1.3.2.3.2.2.1 0 0-.2 0-.4-.1-1-.2-1.6-.2-1.2-.1-2.5-.2-3.8-.3-2.6-.1-5.2-.2-7.9-.2-2.7-.1-5.3-.1-8.1-.3-1.4-.1-2.7-.2-4.2-.4-.7-.1-1.4-.2-2.2-.4-.4-.1-.8-.2-1.3-.4l-.4-.2c-.2-.1-.4-.2-.5-.3-.4-.3-.9-.6-1.4-1.6-.2-.5-.4-1.1-.3-1.6 0-.6.2-1 .3-1.3.1-.3.3-.6.4-.8.2-.2.3-.3.4-.5.5-.5.9-.8 1.3-1.1.7-.5 1.4-.8 2.1-1.2 1.3-.6 2.6-1.2 3.9-1.7 2.5-1 5-2 7.5-2.9 2.5-.9 5-1.8 7.4-2.8 1.2-.5 2.4-1 3.5-1.5.6-.3 1.1-.5 1.6-.8l.2-.1.1-.1s-.1.1-.3.4c-.1.1-.1.3-.2.6 0 .2-.1.5 0 .8 0 .2.1.5.2.6.1.2.2.3.2.3l.1.1s-.1-.1-.3-.2c-.4-.2-.9-.4-1.5-.6-1.1-.4-2.3-.7-3.6-1-2.5-.6-5.1-1.1-7.7-1.5l-7.8-1.3c-2.7-.5-5.2-.9-8.1-1.5-.4-.1-.8-.2-1.1-.3-.2-.1-.4-.1-.7-.2-.2-.1-.3-.1-.6-.3 1 .3-3.5-.3-.5-5.3 1.5-.8 1.2-.5 1.6-.6l.4-.1H198.3c1.3 0 2.6-.1 3.9-.1 2.6-.1 5.1-.4 7.5-.9 4.8-.9 9.4-3 11.4-6.3.9-1.5 1.5-4 2-6.5s.8-5.1 1.2-7.7c.8-5.3 1.6-10.6 3-16 .7-2.7 1.6-5.4 2.8-8.1 1.2-2.7 2.8-5.3 5-7.6 1.3-1.4 3.6-1.5 5-.1 1.4 1.3 1.5 3.6.1 5l-.1.1c-1.5 1.5-2.8 3.4-3.8 5.6-1 2.2-1.9 4.5-2.5 6.9-1.4 4.9-2.2 10-3.1 15.3-.4 2.6-.8 5.3-1.4 8-.3 1.4-.6 2.7-1 4.2-.2.7-.4 1.4-.8 2.2-.3.7-.7 1.6-1.2 2.3-1.8 2.9-4.5 4.9-7.2 6.3-2.7 1.4-5.6 2.2-8.4 2.7-2.8.6-5.6.8-8.3 1-1.4.1-2.8.1-4.1.1H196.9c.2-.1-.2.3 1.1-.5 2.8-4.8-1.4-5.3-.3-5-.2-.1-.1-.1-.1-.1l.3.1c.3.1.5.2.8.2 2.3.6 5 1 7.6 1.5l7.9 1.4c2.6.5 5.3 1 8 1.6 1.3.3 2.7.7 4.1 1.2.7.2 1.4.5 2.2.9.4.2.8.5 1.4.9.1.1.3.2.4.4l.5.5c.1.2.3.4.5.8.1.3.3.7.3 1.1 0 .4 0 .9-.1 1.3s-.2.8-.4 1c-.3.6-.6.9-.9 1.2-.2.2-.3.2-.4.3-.1.1-.3.2-.4.3l-.3.2-.3.1c-.7.4-1.3.7-2 1-1.3.6-2.6 1.1-3.8 1.6-2.5 1-5 1.9-7.5 2.8-2.5.9-5 1.8-7.4 2.8-1.2.5-2.4 1-3.4 1.5-.5.3-1 .5-1.4.8-.2.1-.3.2-.3.2l.1-.1s.1-.2.2-.3c.1-.2.2-.4.2-.8s-.1-.8-.2-1.1c-.4-.7-.6-.8-.8-.9 0 0-.1 0-.1-.1.1 0 .3.1.6.1.5.1 1.1.2 1.7.3 1.2.1 2.5.2 3.8.3 2.6.1 5.2.2 7.9.2 2.7.1 5.3.1 8 .2 1.4.1 2.7.1 4.2.3.7.1 1.5.2 2.3.4.5.1.9.2 1.7.6.2.1.5.3.7.5.3.3.7.6 1 1.4.3.7.3 1.7.1 2.3-.2.6-.5 1-.7 1.2-.2.3-.4.4-.5.6-.2.2-.3.2-.4.3-.1.1-.2.2-.4.2l-.3.2c-.4.2-.7.4-1 .5-.7.3-1.3.6-1.9.9-1.3.6-2.5 1.1-3.7 1.6l-7.3 3.1c-2.4 1.1-4.8 2.2-6.9 3.4-.5.3-1 .6-1.4.9-.2.1-.4.3-.5.4-.1.1-.2.2-.1 0 0 0 .1-.1.1-.2.1-.1.1-.2.1-.5.1-.4 0-1-.3-1.5-.1-.2-.3-.4-.3-.5l-.2-.2c-.1 0-.1-.1-.1-.1s.2.1.4.1l.8.2c5.2 1.1 10.6 1.9 16.1 4.4.7.3 1.3.7 2 1 .7.4 1.3.8 2 1.3 1.3 1 2.5 2 3.5 3.3l.7 1c.2.3.4.7.6 1.1.2.4.4.7.6 1.1l.5 1.1c.1.4.3.8.4 1.1l.3.9.6 1.9c1.7 5 3.4 10.1 5.2 15 3.5 10 7.4 19.8 11.9 29.2 4.5 9.5 9.6 18.6 15.4 27.2 5.8 8.6 12.4 16.7 19.7 24 7.3 7.3 15.3 13.9 23.8 19.6 8.6 5.7 17.7 10.5 27.1 14.6 9.5 3.9 19.4 7 29.4 9.5 2.5.6 5.1 1.1 7.6 1.6l3.8.8 3.8.6 7.7 1.2 7.7.9 3.9.4 3.9.3 7.8.5 1.9.1h2l3.9.1 7.8.1 7.8-.1 3.9-.1h2l1.9-.1 7.8-.5c1.3-.1 2.6-.1 3.9-.3l3.9-.4 7.7-.9 7.7-1.2 3.8-.6 3.8-.8c2.5-.5 5.1-1 7.6-1.6 10-2.5 19.9-5.6 29.4-9.5 9.5-4 18.6-8.9 27.1-14.6 8.6-5.7 16.6-12.3 23.8-19.6 7.3-7.3 13.8-15.4 19.7-24 5.9-8.6 10.9-17.8 15.4-27.2 4.5-9.5 8.4-19.2 11.9-29.2 1.8-5 3.5-10 5.2-15l.6-1.9.3-.9c.1-.3.3-.7.4-1.1l.5-1.1c.2-.4.4-.7.6-1.1.2-.4.4-.7.6-1.1l.7-1c1-1.3 2.2-2.4 3.5-3.3.6-.4 1.3-.9 2-1.3s1.3-.8 2-1c5.4-2.5 10.9-3.4 16.1-4.4l.8-.2c.2 0 .4-.1.4-.1l-.1.1-.2.2c-.1.1-.2.3-.3.5-.3.4-.3 1.1-.3 1.5 0 .2.1.3.1.5 0 .1.1.2.1.2.1.2.1.1-.1 0-.1-.1-.3-.3-.5-.4-.4-.3-.9-.6-1.4-.9-2.1-1.2-4.5-2.3-6.9-3.4l-7.3-3.1c-1.2-.5-2.5-1.1-3.7-1.6-.6-.3-1.3-.6-1.9-.9-.3-.2-.7-.3-1-.5l-.3-.2c-.1-.1-.2-.1-.4-.2-.1-.1-.2-.2-.4-.3-.2-.1-.3-.3-.5-.6-.2-.2-.5-.6-.7-1.2-.2-.6-.2-1.6.1-2.3.3-.8.7-1.1 1-1.4.3-.2.6-.4.7-.5.8-.4 1.2-.5 1.7-.6.9-.2 1.6-.3 2.3-.4l4.2-.3c2.7-.1 5.4-.1 8-.2 2.7 0 5.3-.1 7.9-.2 1.3-.1 2.6-.2 3.8-.3.6-.1 1.2-.2 1.7-.3.2-.1.5-.1.6-.1 0 0-.1 0-.1.1-.2.1-.4.2-.8.9-.2.3-.3.8-.2 1.1 0 .4.1.6.2.8.1.2.2.3.2.3l.1.1s-.1-.1-.3-.2c-.4-.2-.9-.5-1.4-.8-1.1-.5-2.2-1-3.4-1.5-2.4-1-4.9-1.9-7.4-2.8-2.5-.9-5-1.8-7.5-2.8-1.3-.5-2.5-1-3.8-1.6-.6-.3-1.3-.6-2-1l-.3-.1-.3-.2c-.1-.1-.2-.2-.4-.3-.1-.1-.2-.2-.4-.3-.3-.3-.6-.6-.9-1.2-.2-.3-.3-.6-.4-1-.1-.4-.1-.9-.1-1.3.1-.4.2-.8.3-1.1.2-.3.3-.6.5-.8.2-.2.3-.4.5-.5l.4-.4c.5-.4 1-.7 1.4-.9.8-.4 1.5-.7 2.2-.9 1.4-.5 2.8-.8 4.1-1.2 2.7-.6 5.3-1.1 8-1.6l7.9-1.4c2.6-.5 5.3-.9 7.6-1.5.3-.1.5-.1.8-.2l.3-.1-.1.1c1.1-.3-3.1.1-.3 5 1.3.7.9.4 1.1.5h-1.4c-1.3 0-2.7-.1-4.1-.1-2.8-.1-5.5-.4-8.3-1-2.8-.6-5.6-1.4-8.4-2.7-2.7-1.3-5.4-3.4-7.2-6.3-.4-.7-.9-1.5-1.2-2.3-.3-.8-.6-1.5-.8-2.2-.4-1.4-.7-2.8-1-4.2-.6-2.7-1-5.4-1.4-8-.8-5.2-1.7-10.4-3.1-15.3-.7-2.4-1.5-4.8-2.5-6.9-1-2.2-2.3-4.1-3.8-5.6-1.4-1.4-1.4-3.6 0-5 1.1-1.5 3.4-1.5 4.8 0 0-.1 0-.1 0 0zM583.8 320.9c-10.4-9.4-21.4-18.2-33.2-25.6l-9-5.4-9.3-4.8c-.8-.4-1.6-.8-2.4-1.1l-2.4-1.1-4.8-2.1c-1.6-.7-3.2-1.3-4.8-1.9l-4.9-1.8c-13.1-4.6-26.6-8-40.4-9.9-13.8-2-27.8-2.6-41.8-2.6-14.1 0-28.1.6-41.8 2.6-13.8 2-27.3 5.3-40.4 9.9l-4.9 1.8c-1.6.6-3.3 1.2-4.8 1.9l-4.8 2.1-2.4 1.1c-.8.3-1.6.7-2.4 1.1l-9.3 4.8-9 5.4c-11.8 7.4-22.8 16.1-33.2 25.6l.2.1c-1.4 1.2-3.4 1.1-4.7-.2-1.2-1.3-1.1-3.3.1-4.5 10-10.4 21.1-20 33.1-28.2 12-8.3 25.1-15 38.7-20.3 13.6-5.3 27.9-8.9 42.3-11.2 14.4-2.2 29-2.9 43.4-3 14.4.1 29 .8 43.4 3 14.4 2.3 28.7 5.9 42.3 11.2 13.6 5.3 26.7 12 38.7 20.3 12 8.3 23 17.8 33.1 28.2 1.3 1.3 1.2 3.4-.1 4.7-1.2 1.1-3.1 1.1-4.5-.1z" class="st3"/>
  <path d="M545.5 284.8c.1 0 .4.1.7.2.3 0 .6.1.9.1.6.1 1.3.1 1.9.1 1.3 0 2.6-.2 3.9-.5 2.6-.5 5.2-1.4 7.7-2.5 5-2.2 9.6-5.3 14.1-8.6 4.5-3.4 8.8-7 13.3-10.6 4.5-3.6 9.1-7.1 13.8-10.3 9.6-6.5 20-12.1 31.2-15.8 5.6-1.8 11.3-3.3 17.1-4.2 1.5-.2 2.9-.5 4.4-.6l2.2-.3 1.1-.1h.7c.2 0 .5 0 .7.1.5.1.9.2 1.3.4.8.4 1.3.9 1.7 1.4.8 1 1.1 1.9 1.3 3 .1.5.1 1.1 0 1.6l-.1.4v.2l-.1.3c-.2.8-.3 1.4-.5 2-.1.6-.2 1.1-.2 1.4 0 .4.1.5 0 .5 0-.1-.2-.3-.2-.3s.2.1.5.2l.3.1.5.1 1 .2 2.1.3 8.5 1.2c2.8.4 5.7.8 8.6 1.4 1.4.3 2.9.6 4.4.9 1.5.4 3 .7 4.9 1.5.5.2 1 .4 1.7.9.4.3.8.6 1.4 1.3.1.2.3.3.4.6.2.3.3.5.4.9.1.4.2.7.3 1.2v1.3l-.3 1.2c-.1.3-.3.6-.5.9-.2.3-.3.4-.5.6-.2.2-.3.4-.4.5-.1.1-.3.2-.4.3l-.2.1-.2.1-.7.6c-.9.8-1.9 1.7-2.7 2.6-1.7 1.8-3.2 3.8-4.1 5.7-.4.9-.6 1.7-.6 2.1 0 .2 0 .3.1.4 0 .1.1.1.2.3v.1l-.1-.1c-.1-.1 0 0 0 0 .1.1.3.2.5.4.5.3 1 .6 1.6.9 1.1.6 2.3 1.2 3.5 1.8 4.9 2.3 10 4.3 15.1 5.7 1.3.3 2.5.6 3.7.9l1.8.3 1.1.1c.4 0 .8.1 1.3.2.9.1 1.8.3 2.8.6 1 .3 2.1.7 3.5 1.6.7.5 1.5 1.2 2.1 2.2.7 1 1.1 2.4 1.1 3.6.1 1.2-.2 2.2-.4 3-.3.8-.6 1.4-.9 1.9-.6 1-1.2 1.8-1.7 2.5-.6.7-1.1 1.3-1.6 1.9l-3 3.1c-.4.5-.8.9-1.1 1.3-.3.4-.5.7-.5.6 0-.1.1-.3.2-.9.1-.6-.1-1.6-.6-2.3-.5-.7-.8-.9-1-1 0 0-.1 0-.1-.1l.1.1c.1 0 .2.1.3.1 1.8.7 4 1.1 6.4 1.2 2.4.1 5-.1 7.6-.5 2.6-.4 5.2-.9 8-1.5 1.4-.3 2.7-.6 4.3-.9.4-.1.8-.2 1.4-.2.3 0 .6-.1 1.1-.1h.9c.2 0 .5.1.8.1.3.1.9.2 1.3.4.8.4 1.4.7 2.3 2 .8 1 1 2.8.9 3.6-.1 1-.3 1.6-.3 1.4l-.1.2-.3.7c-.2.5-.4.9-.5 1.2-.7 1.5-1.4 2.8-2.1 4.1l-2 3.8c-1.3 2.5-2.5 4.9-3.5 7.2-.5 1.1-.8 2.3-1 3.1-.1.4-.1.7-.1.7s0-.1-.1-.3c-.1-.2-.2-.6-.5-.9-.1-.2-.3-.3-.5-.5-.1 0-.1-.1 0 0l.1.1.2.1.7.5c.5.3 1 .6 1.6.9l3.8 2.1c1.4.8 2.8 1.7 4.4 3.1.8.7 1.6 1.6 2.4 2.8.7 1.2 1.3 2.7 1.5 4.2.1.4.1.8.1 1.2v.8c0 .5 0 .9-.1 1.4-.1.9-.2 1.8-.4 2.7-.4 1.8-.9 3.4-1.6 5-1.3 3.1-2.9 5.9-4.6 8.4-1.7 2.6-3.5 4.9-5.4 7.2-3.7 4.6-7.6 8.9-11.4 13.1l-1.4 1.5c.3-.4.2-.3.1 0-.2.6-.4 1.7-.4 2.9-.2 2.4-.1 5.2-.1 8 .1 5.6.3 11.4.1 17.4-.2 5.9-.8 12-2.7 18.1-.9 3-2.2 6.1-3.9 9-.9 1.4-1.9 2.8-3 4.1-.6.6-1.2 1.3-1.8 1.9l-1.6 1.4c-4.2 3.8-8.4 7.7-12.4 11.5-2 1.9-4 3.9-5.6 5.8-.8 1-1.6 1.9-2.1 2.8-.2.4-.4.7-.5.9-.1.2 0 .1-.1-.1 0-.2-.1-.2 0-.1v.1l.1.2.3.3.7.6c.9.9 1.9 1.7 3.1 2.8l1 1c.4.4.8.9 1.2 1.6.4.7 1 1.9.9 3.3 0 1.4-.6 2.5-1.1 3.2-.5.7-.9 1.2-1.4 1.6-.4.4-.9.7-1.3 1-.8.6-1.6 1-2.4 1.3-3 1.4-5.9 2.3-8.8 3-2.9.7-5.8 1.3-8.7 1.7-2.9.5-5.8.8-8.7 1.1-2.9.3-5.8.4-8.7.4-2.9 0-5.8-.1-8.8-.4-1.5-.2-2.9-.4-4.4-.8-.7-.2-1.5-.4-2.2-.8-.7-.3-1.5-.8-2.1-1.6-.3-.4-.2-1 .2-1.3.3-.2.8-.2 1.1 0l.2.1c.3.2.9.4 1.5.6.6.1 1.3.2 1.9.2 1.3.1 2.7 0 4.1-.1 2.7-.2 5.5-.6 8.3-1 2.8-.4 5.5-1 8.2-1.5 2.7-.6 5.4-1.2 8.1-1.9 2.7-.7 5.3-1.4 7.9-2.3 2.6-.8 5.1-1.8 7.2-2.9.5-.3 1-.6 1.3-.8.2-.1.3-.2.4-.3.1-.1.1-.2 0 0-.1.1-.3.5-.4 1.2 0 .7.2 1.2.3 1.3.2.2-.2-.2-.6-.5-.9-.8-2.2-1.7-3.4-2.8l-.9-.8-.4-.4-.2-.2-.3-.3c-.8-.9-1.6-2.2-2-3.8-.4-1.6-.2-3.1.1-4.3.3-1.2.8-2.1 1.2-3 .9-1.7 1.9-2.9 2.9-4.2 2-2.4 4-4.6 6-6.7 4.1-4.2 8.1-8.1 12.2-12.1l1.5-1.5c.4-.4.8-.8 1.1-1.2.7-.8 1.4-1.8 2-2.8 1.2-2 2.1-4.2 2.8-6.6 1.4-4.8 1.9-10.2 2-15.6.1-5.4-.1-11-.3-16.8-.1-2.9-.2-5.8 0-9 .1-1.6.3-3.3.9-5.5.4-1.1.8-2.4 2.1-3.8l1.5-1.7c3.8-4.2 7.5-8.4 10.9-12.7 3.4-4.3 6.5-8.7 8.3-13 .4-1.1.8-2.1 1-3.1.1-.5.2-1 .2-1.5v-1 .1c0 .2.1.3.1.3l-.4-.4c-.5-.5-1.5-1.1-2.6-1.7l-3.7-2-2.1-1.2c-.4-.2-.7-.5-1.1-.7l-.3-.2-.1-.1-.2-.2c-.4-.3-.9-.8-1.2-1.2-.7-.9-1.2-1.9-1.5-2.8-.3-.9-.4-1.7-.4-2.4-.1-1.4.1-2.5.3-3.5.4-2 1-3.5 1.6-5 1.2-3 2.6-5.6 4-8.2l2-3.8c.6-1.2 1.3-2.4 1.8-3.5.1-.3.2-.5.3-.7l.1-.3v-.1c.1-.3-.1.2-.2 1.1-.1.7.2 2.4.9 3.3.9 1.2 1.4 1.5 2.1 1.9.4.2.8.3 1 .4.2 0 .4.1.5.1h.4c.1 0 .1 0 0 0s-.4.1-.7.1c-1.2.2-2.6.5-4 .8-2.8.6-5.8 1.2-8.8 1.6-3 .4-6.2.6-9.4.5-3.3-.1-6.7-.6-10.2-2.1l-.6-.3-.4-.2-.6-.3c-.8-.5-1.7-1.1-2.6-2.4-.4-.6-.8-1.4-.9-2.2-.1-.4-.2-.8-.2-1.1v-1c.1-1.3.5-2.2.8-2.9.7-1.4 1.3-2.2 1.9-2.9.6-.7 1.1-1.3 1.7-1.9l3-3.1c.9-.9 1.7-1.9 1.9-2.3 0-.1.1-.1 0 0 0 .1-.1.4-.1.9s.2 1.2.5 1.6c.3.4.5.6.6.7.2.1 0 0-.4-.1s-.9-.2-1.4-.3l-.8-.1-1-.1c-.8-.1-1.7-.2-2.5-.4-1.6-.3-3.1-.7-4.6-1.1-5.9-1.7-11.3-4-16.7-6.6-1.3-.7-2.7-1.4-4-2.1-.7-.4-1.4-.8-2.1-1.3-.4-.2-.8-.5-1.2-.9-.3-.2-.5-.4-.8-.7v-.2l-.2-.2-.3-.4c-1.6-1.9-2.6-4.8-2.5-7.2.1-2.4.8-4.4 1.6-6.1 1.7-3.3 3.8-5.8 6-8 1.1-1.1 2.3-2.2 3.5-3.2l.9-.8.2-.2s.2-.1.1 0l-.2.2-.3.3c-.1.1-.1.2-.3.4l-.3.6-.3.9c-.1.3-.1.7 0 1.1 0 .3.1.6.2.9.1.3.2.4.3.6.1.2.2.3.3.4.4.5.5.5.6.6l-.1-.1c-.7-.3-2-.8-3.3-1.1l-3.9-.9c-2.7-.6-5.4-1.1-8.2-1.6l-8.4-1.4-2.1-.4-1.1-.2-.6-.1-.6-.1c-1-.3-2.2-.7-3.4-1.5-1.2-.8-2.2-2.2-2.7-3.6s-.6-2.7-.5-3.7c.1-1.1.2-2 .4-2.8.2-.8.4-1.6.6-2.2l.1-.2v-.1.8c.1.3.1.6.5 1 .2.2.4.5.9.7.2.1.5.2.8.3.1 0 .3 0 .4.1h.4l-1 .1-2.1.2c-1.4.1-2.7.3-4.1.5-5.4.7-10.8 1.9-16.1 3.4-10.6 3.1-20.6 8-30 14-4.7 3-9.3 6.3-13.8 9.7-4.5 3.4-9 6.9-13.8 10.2-4.8 3.3-9.8 6.3-15.4 8.5-2.8 1.1-5.6 2-8.6 2.4-1.5.2-3 .4-4.6.3-.8 0-1.6-.1-2.4-.2-.4 0-.8-.1-1.2-.2-.4-.1-.8-.2-1.3-.4-.9-.4-1.4-1.4-1-2.4.3-.9 1.3-1.3 2.2-1.1h.2z" class="st3"/>
  <path d="M572.7 303.6c1.7.1 3.6 0 5.5-.2 1.8-.1 3.7-.4 5.5-.7 3.6-.7 7.2-1.6 10.5-3 1.7-.7 3.2-1.5 4.9-2.4l5-2.9 10-5.9c6.7-4 13.4-7.8 20.3-11.6 3.4-1.9 6.9-3.7 10.5-5.5 1.8-.9 3.6-1.7 5.7-2.5.5-.2 1.1-.4 1.7-.5.6-.2 1.3-.3 2.4-.4h1.1c.2 0 .5.1.8.1l.4.1c.1 0 .4.2.6.2l.6.3c.2.1.4.2.6.5.4.4.8.9 1.1 1.4.2.5.4 1.1.5 1.6v1.1c0 .2 0 .4-.1.4l-.1.3c0 .2-.1.5-.2.6l-.1.4-.3.8c-.7 2-1.5 3.8-2.2 5.5-.3.9-.7 1.7-.9 2.4-.2.7-.4 1.5-.4 1.8v-.1c0-.2-.3-.8-.6-1-.2-.1-.3-.2-.4-.3h-.1l.2.1c.6.2 1.1.4 1.6.6 1.9.7 3.8 1.5 5.6 2.2 3.6 1.5 7.2 3.2 10.8 4.9l5.4 2.7c1.8 1 3.6 1.9 5.5 3.2.5.3 1 .7 1.5 1.1.3.2.6.5.9.8.2.2.3.3.5.6l.3.4c.1.2.2.4.3.5.1.1.3.5.4.7.1.2.1.2.2.5.1.2.1.4.2.6.1.4.1 1 .1 1.6 0 .6-.3 1.3-.6 1.9-.3.5-.7 1-1.1 1.4-.3.3-.7.6-1 .8-.3.1-.5.3-.8.4l-.2.1c-.4.2-.8.3-1.2.5-1.6.7-3.2 1.6-4.6 2.4-.7.4-1.4.9-2 1.4-.6.5-1.1.9-1.4 1.2l-.1.1c.1-.1.3-.7.1-1.5-.1-.4-.2-.8-.4-1-.1-.1-.1-.2-.2-.3-.1-.1-.1-.1-.1-.2l-.1-.1c-.1 0 0 0 0 0 .4.2 1.2.4 2 .6.8.2 1.7.4 2.6.6 1.8.4 3.7.7 5.5 1l11.5 1.9c1.9.3 3.9.7 5.9 1.1 2 .5 4 .9 6.5 1.9.6.3 1.3.6 2.2 1.1.2.2.4.3.7.5l.4.4c.1.1.3.3.4.5l.2.3c.1.1.2.2.2.4.2.3.3.5.4.8.1.3.3.7.4 1 .1.4.2.8.2 1.2 0 .8-.1 1.7-.4 2.3-.1.2-.1.3-.2.5l-.2.4c-.1.2-.3.5-.4.7l-.5.7-1 1.2c-1.3 1.6-2.5 3-3.6 4.5-1.1 1.4-2.2 2.9-3.1 4.3-.4.7-.8 1.3-1 1.9l-.1.3c0 .1-.1.2-.1.2v-.3c0-.3-.3-1.1-.8-1.5-.1-.1-.1-.1-.2-.1l-.1-.1-.1-.1c-.1 0-.1-.1 0 0l.6.3 2.5 1.3c.9.5 1.8 1 2.8 1.6 1 .6 2 1.3 3.1 2.3l.8.8c.3.3.6.7.8 1 .3.4.5.8.8 1.3.2.4.4 1 .6 1.5.3 1.1.4 2.3.2 3.4-.1.6-.2 1-.3 1.5-.2.5-.3.9-.6 1.4-.1.2-.3.5-.4.7l-.4.5c-.3.4-.5.6-.7.9-.5.5-.9 1-1.3 1.4-.8.8-1.6 1.5-2.4 2.2-3.1 2.6-6.2 4.9-8.7 7.3-1.2 1.2-2.3 2.4-2.9 3.4-.3.5-.3.8-.3.7v-.1-.2c0-.1-.1-.1-.1-.1l.1.1c2.8 3.8 4.5 7.8 5.7 12 1.2 4.2 1.7 8.7 1.2 13.2-.4 4.5-2 9-4.4 12.8-.3.5-.6 1-.9 1.4l-1.1 1.3c-.7.9-1.4 1.8-2.2 2.5-.8.7-1.6 1.5-2.4 2.2l-2.3 1.9c-3 2.5-6.1 4.9-9.2 7.3-6.2 4.8-12.6 9.3-19.3 13.5-3.4 2.1-6.8 4.1-10.3 5.9-1.8.9-3.6 1.7-5.6 2.5-.9.4-2 .7-3 1-.5.2-1 .3-1.6.4l-1.6.3c-1.3.3-2.7-.6-2.9-1.9-.3-1.3.5-2.6 1.8-2.9l.2-.1c3.2-.8 6.6-2.5 9.8-4.4 3.2-1.9 6.4-4 9.5-6.2 6.2-4.4 12.2-9.2 18.1-14.1 3-2.4 5.9-4.9 8.8-7.5l2.2-1.9 1.8-1.8c.6-.6 1.1-1.3 1.6-1.9l.8-1 .6-1c1.7-2.8 2.6-5.8 2.9-9.1.2-3.2-.2-6.6-1.2-9.8-.5-1.6-1.2-3.2-1.8-4.7-.8-1.5-1.6-3-2.5-4.1l-.4-.5-.4-.6c-.3-.4-.5-1-.7-1.4-.2-.5-.3-1-.4-1.6-.1-.5-.1-1.1-.1-1.6.1-2.1.8-3.6 1.4-4.8 1.4-2.5 2.9-4.1 4.5-5.6 3.1-3 6.2-5.4 9-7.8.7-.6 1.3-1.2 1.9-1.7l.7-.7.2-.2v-.1.8c0 .1.1.2.1.2l-.1-.1-.2-.2c-.4-.3-.9-.7-1.6-1.1-.7-.4-1.4-.8-2.3-1.3l-2.7-1.4-.7-.4s-.2-.1-.3-.2l-.4-.3-.4-.3-.4-.4c-1.1-1.1-1.9-2.8-2-4.1-.2-1.3 0-2.4.2-3.2.1-.5.2-.8.3-1.2.1-.3.3-.7.4-1 .5-1.3 1.1-2.3 1.7-3.3 1.2-1.9 2.5-3.6 3.7-5.2 1.3-1.6 2.5-3.1 3.7-4.6l.8-1.1.4-.5c-.1.1-.2.2-.2.4l-.1.2c-.1.1-.1.2-.1.3-.1.4-.3 1-.3 1.6 0 .3 0 .6.1.9.1.2.1.5.2.7.1.2.2.3.3.5l.1.2.1.1.2.2.1.1.1.1c.1 0-.1-.1-.4-.2-1.1-.5-3-1-4.7-1.3-1.8-.4-3.6-.7-5.5-1.1l-11.4-1.9c-1.9-.3-3.9-.7-5.9-1.1-1-.2-2-.4-3.1-.7-.5-.1-1.1-.3-1.6-.5-.6-.2-1.2-.4-1.9-.7-.4-.2-.8-.4-1.2-.7-.2-.1-.4-.3-.6-.5-.2-.1-.4-.3-.6-.5l-.7-.7c-.2-.3-.4-.6-.7-.9-.4-.7-.8-1.5-.9-2.4-.2-.9-.1-1.7 0-2.5.1-.4.2-.7.3-1l.2-.5.2-.4c.5-1.1 1-1.7 1.5-2.3 1-1.2 2-2 2.9-2.7 1-.7 1.9-1.3 2.8-1.9 1.9-1.1 3.7-2.1 5.7-2.9l1.5-.6s.2-.1.1-.1c-.2.1-.3.1-.5.2s-.5.3-.7.5c-.3.3-.6.7-.8 1.1-.3.5-.4 1.1-.5 1.5-.1.5 0 1 0 1.3 0 .2.1.3.1.5l.1.3.2.4c0 .1.1.2.1.2s0 .1.1.1l.1.1-.2-.2c-.2-.2-.5-.4-.8-.6-1.3-.9-2.9-1.9-4.5-2.7-1.6-.9-3.3-1.8-5-2.6-3.4-1.7-6.8-3.3-10.3-4.8-1.7-.8-3.5-1.5-5.2-2.2-.4-.2-.8-.3-1.2-.4l-.5-.2c-.3-.1-.5-.2-.8-.3-.5-.3-1.1-.6-1.6-1.1-1.1-.9-1.8-2.3-2.1-3.5-.3-1.2-.3-2.1-.2-3 .2-1.6.5-2.8.9-3.9s.8-2.1 1.2-3c.8-1.9 1.6-3.6 2.2-5.2l.2-.6.1-.3v1.5c0 .4.2.8.4 1.2.2.4.5.8.8 1.1.2.2.3.3.5.4.1.1.3.2.4.3.1.1.3.1.4.2.1 0 .2.1.2.1.1 0 .4.1.4.1H655.2c.1 0-.2 0-.5.1s-.7.2-1.1.3c-1.6.5-3.3 1.3-5 2-3.4 1.5-6.9 3.2-10.3 5-6.8 3.5-13.6 7.2-20.5 10.8l-10.3 5.5c-1.7.9-3.4 1.8-5.2 2.7-1.8.9-3.8 1.8-5.7 2.5-3.9 1.4-7.9 2.3-11.9 2.8-2 .2-4 .4-6.1.4-2 0-4 0-6.2-.2-1.4-.1-2.4-1.3-2.3-2.7.1-1.3 1.2-2.3 2.6-2.3v-.4zM472.1 567.5c-.8.3-1.3.5-2 .7l-1.8.6c-1.2.4-2.4.7-3.7 1-2.5.6-5 1-7.5 1.3-5.1.6-10.4.5-15.6-1-2.6-.7-5.2-1.8-7.5-3.2-.6-.3-1.2-.7-1.7-1.1-.6-.4-1.1-.8-1.6-1.3-.5-.4-1-.9-1.5-1.4l-.4-.4-.2-.2-.1-.1-.2-.2c-.1-.2-.2-.3-.3-.5l-.1-.3c0-.1-.1-.2-.1-.2-.1-.2-.2-.6-.3-.8l-.1-.5c0-.2-.1-.5-.1-.7-.1-1.5-.1-2.7-.1-3.9 0-1.2.1-2.4.1-3.6.1-2.4.2-4.7.4-7 .1-1.8 1.7-3.1 3.5-3 1.7.1 3 1.5 3 3.2 0 2.3.1 4.6.2 6.9.1 1.1.1 2.3.2 3.4s.2 2.3.3 3v.1s-.1-.3-.1-.4l-.1-.2-.1-.2c-.1-.1-.2-.3-.3-.4l-.2-.2-.1-.1.1.1.3.2c.4.3.7.6 1.1.9.4.3.8.5 1.2.8.4.2.8.5 1.2.7 1.7.8 3.5 1.4 5.4 1.7 3.8.7 7.9.4 12-.4 2-.4 4.1-1 6.1-1.6 1-.3 2-.7 3-1.1.5-.2 1-.4 1.4-.6.4-.2 1-.4 1.3-.6 2.8-1.5 6.3-.5 7.8 2.3s.5 6.3-2.3 7.8l-.6.3.1.2z" class="st3"/>
  <path d="M490.4 418.8c5.6 16.3 25.4 9.5 31.5 3.3 5.7-5.8 13.6-14.4 11.4-28.9-2.6-16.7-19.2-17.1-27.8-10-7.2 5.9-20.8 19.3-15.1 35.6zm16.7-35c4.8-4 14-3.7 15.4 5.5 1.2 8-3.2 12.7-6.3 15.9-3.4 3.4-14.3 7.2-17.4-1.8-3.1-8.9 4.3-16.3 8.3-19.6z" class="st4"/>
  <path fill="#575757" stroke="#575757" stroke-linecap="round" stroke-linejoin="round" stroke-miterlimit="10" stroke-width="2.79" d="M430.9 450.8c-14.6 0-29 7.3-29 46s29 46 29 46h.1s29-7.3 29-46-14.4-46-29-46"/>
</svg>
