<svg xmlns="http://www.w3.org/2000/svg" viewBox="0 0 992 992">
  <circle cx="496" cy="496" r="450" fill="#fff"/>
  <path fill="#212121" d="M496 0C222.067 0 0 222.067 0 496s222.067 496 496 496 496-222.067 496-496S769.933 0 496 0zm300 511H496v435C247.472 946 46 744.528 46 496S247.472 46 496 46s450 201.472 450 450a451.187 451.187 0 01-12.285 104.836z"/>
  <path fill="#ff8900" d="M467.58 436.155c-10.696-20.319-5.046-40.076-.92-54.502.668-2.339 1.3-4.548 1.824-6.612.429-1.686.882-3.748 1.361-5.932 1.04-4.731 2.225-10.13 3.98-15.659a93.548 93.548 0 01-6.904-25.778 84.324 84.324 0 014.984-40.004 37.659 37.659 0 016.332-23.29c17.361-25.296 43.712-39.805 72.296-39.805a88.468 88.468 0 0117.185 1.712c31.086 6.17 55.093 29.201 64.217 61.606a102.929 102.929 0 014.052 28.014l182.38-133.875A448.656 448.656 0 00496 46C247.472 46 46 247.472 46 496a447.997 447.997 0 0053.78 213.503l369.172-270.987a35.984 35.984 0 01-1.373-2.36z"/>
  <path fill="#1aadff" d="M633.324 427.004c-10.037-14.596-20.643-29.07-31.84-42.799-5.023-6.156-11.09-15.381-19.035-14.683a26.147 26.147 0 00-2.603-2.808 84.753 84.753 0 0011.565-7.727c20.517-16.486 24.31-40.133 17.423-64.591-6.293-22.348-22.44-39.935-45.789-44.57-26.371-5.236-50.032 6.294-65.02 28.133-2.45 3.57-2.708 8.653-1.321 12.853a60.539 60.539 0 00-5.946 34.063 70.122 70.122 0 009.343 27.409c-4.577 8.806-6.239 20.333-8.356 28.667-3.67 14.447-10.382 29.865-2.928 44.026 4.146 7.876 14.115 6.029 18.647 0q5.828-7.754 11.85-15.362c-8.25 25.327-5.672 54.21-6.225 72.355-.023.756-.312 1.447-.367 2.153-30.414 8.798-45.236 26.572-50.608 40.676-2.289 6.008-1.415 11.392-1.047 17.572a107.765 107.765 0 01.042 12.06c-.105 2.01-.345 4.005-.485 6.011-.046.661.312 3.94-.018 4.34-4.882 5.97-10.3 12.104-16.48 16.575-7.43 5.376-5.344 17.898 4.874 17.994a54.26 54.26 0 0038.51-15.716c2.818-2.73 2.426-6.088 1.574-9.52-.446-1.795-.92-3.822.033-5.516 1.623-2.887 2.743-4.534 2.732-8.052l-.046-15.53c-.02-6.822 1.4-12.257 7.633-15.962 3.935-2.34 8.444-3.505 12.607-5.411a5.636 5.636 0 011.81-.588c-1.751 1.47-3.988 2.545-5.827 4.033a56.333 56.333 0 00-8.284 7.678c-5.293 6.422-5.549 14.9-5.665 22.865-.138 9.53.787 19.939 3.947 28.982a7.344 7.344 0 01.61 2.728c-.107 2.206-4.203 3.843-5.804 5.002q-4.032 2.918-7.918 6.032-2.496 1.369-5.004 2.726c-4.215 2.268-4.904 7.64-2.584 11.544 3.944 6.64 13.159 6.043 19.81 5.451 8.629-.768 26.43-4.268 29.47-14.207a9.827 9.827 0 00.973-2.602c.43-1.94-.65-4.568.25-6.37.862-1.725 3.15-2.74 4.102-4.7 2.574-5.29.882-10.735.19-16.202-.747-5.883-.112-11.964.4-17.838a3.082 3.082 0 01.426-1.567 3.006 3.006 0 011.344-.89c7.766-3.266 15.72-3.724 23.788-5.4 9.9-2.056 20.42-5.846 26.734-14.204a26.37 26.37 0 002.583-4.177c7.86-15.845 8.87-34.832 8.416-52.177-.039-1.48-.087-2.985-.145-4.507 12.348-10.802 23.495-23.638 35.824-34.034 3.7-3.12 4.58-10.227 1.835-14.218zm-110.728-50.068c-3.643 3.49-7.18 7.08-10.669 10.713.863-3.78 1.716-7.564 2.61-11.337.49-2.065 1.092-4.18 1.714-6.323a46.317 46.317 0 008.55 4.76 113.96 113.96 0 01-2.205 2.187zm73.971 62.89c.002-.454.007-.91-.004-1.36a14.154 14.154 0 001.197-4.793 108.592 108.592 0 00-.295-19.14c3.32 5.401 6.686 10.777 10.143 16.092-3.64 2.978-7.36 6.038-11.04 9.201z"/>
</svg>
